<svg xmlns="http://www.w3.org/2000/svg" xmlns:xlink="http://www.w3.org/1999/xlink" viewBox="0 0 465.077 346.302">
  <defs>
    <style>
      .cls-1, .cls-4, .cls-6 {
        fill: #151616;
      }

      .cls-1, .cls-2, .cls-3, .cls-4, .cls-5, .cls-6, .cls-7 {
        fill-rule: evenodd;
      }

      .cls-2, .cls-3, .cls-5, .cls-7 {
        fill: #ffda5e;
      }

      .cls-10, .cls-3, .cls-4, .cls-5, .cls-6, .cls-7 {
        stroke: #151616;
      }

      .cls-3 {
        stroke-width: 2.126px;
      }

      .cls-4, .cls-7 {
        stroke-width: 1.417px;
      }

      .cls-5 {
        stroke-width: 0.567px;
      }

      .cls-6 {
        stroke-width: 0.709px;
      }

      .cls-8 {
        clip-path: url(#clip-path);
      }

      .cls-9 {
        clip-path: url(#clip-path-2);
      }

      .cls-10 {
        fill: none;
        stroke-width: 0.85px;
      }

      .cls-11 {
        fill: #5a50f9;
        opacity: 0.1;
      }
    </style>
    <clipPath id="clip-path">
      <path id="Path_88" data-name="Path 88" d="M0,67H330.7V286.8H0Zm0,0" transform="translate(0 -67)"/>
    </clipPath>
    <clipPath id="clip-path-2">
      <path id="Path_90" data-name="Path 90" d="M0,63H330.7V288.959H0Zm0,0" transform="translate(0 -63)"/>
    </clipPath>
  </defs>
  <g id="Group_612" data-name="Group 612" transform="translate(-216 -217.334)">
    <g id="_258324" data-name="258324" transform="translate(253 217.396)">
      <path id="Path_68" data-name="Path 68" class="cls-1" d="M173.195,45.478l9.074,19.5,21.088,2.364-15.74,14.651,4.267,20.782-18.8-10.433L154.633,102.83l4.122-21.113L143.081,67.41l21.348-2.6Zm-82.093,0,9.073,19.5,21.089,2.364-15.74,14.651,4.266,20.782-18.8-10.433L72.54,102.83l4.122-21.113L60.988,67.41l21.348-2.6ZM132.149-.062l9.072,19.494,21.09,2.365-15.74,14.657,4.265,20.788L132.04,46.8,113.587,57.277l4.122-21.1L102.035,21.869l21.347-2.605Zm0,0" transform="translate(32.951)"/>
      <path id="Path_69" data-name="Path 69" class="cls-2" d="M186.447,96.071,172.026,77.155l.006.415-.18-.283-.681,10.162Zm-30.462-.1L169.523,76.4l-.4.138.217-.259-9.867,2.491Zm8.116-31.01-17.43,2,22.792,6.823-.259-.337.313.126Zm7.281-15.818.547,23.784.242-.349-.025.337,6.522-7.816Zm24.578,17.99L173.512,75l.408.126-.33.084L183.042,79ZM104.355,96.071,89.933,77.155l.012.415-.181-.283-.686,10.162Zm-30.463-.1L87.43,76.4l-.4.138.217-.259-9.868,2.491Zm8.117-31.01-17.431,2L87.37,73.785l-.259-.337.313.126Zm7.28-15.818.548,23.784.241-.349-.024.337L96.575,65.1Zm24.584,17.99L91.419,75l.409.126-.331.084L100.949,79Zm31.528-16.6L130.98,31.608l.011.427-.186-.289L130.125,41.9Zm-30.463-.108L128.477,30.85l-.4.15.216-.265-9.867,2.485Zm8.117-31.01-17.431,2,22.791,6.829-.259-.337.314.126Zm7.281-15.818.547,23.784.24-.349-.023.343,6.522-7.822Zm24.583,18-22.454,7.87.41.12-.331.084L142,33.449Zm0,0" transform="translate(34.891 1.975)"/>
      <path id="Path_70" data-name="Path 70" class="cls-3" d="M210.961-11.988C198.2,14.75,160.378,12.47,138.826,28.793l-3.718,2.816-3.718-2.816C109.838,12.47,72.017,14.75,59.255-11.988A30.418,30.418,0,0,1,56.09-21.1c-1.673-9.308.818-18.9,4.079-27.6C62.131-53.943,64.453-59,66.632-64.16c1.42-3.363,3.243-7.647,3.778-11.269A30.561,30.561,0,0,0,68.5-90.765a31.625,31.625,0,0,0-3.417-6.679l-3.309-4.507,4.23-3.7c6.649-5.818,11.817-12.731,14.314-21.245l1.408-4.795,5,.41c15.854,1.311,31.269-.24,45.625-7.413l2.756-1.377,2.756,1.377c14.357,7.173,29.771,8.724,45.625,7.413l5-.41,1.408,4.795c2.5,8.515,7.666,15.428,14.32,21.245l4.225,3.7-3.31,4.507a31.9,31.9,0,0,0-3.418,6.679,30.563,30.563,0,0,0-1.907,15.336c.536,3.622,2.358,7.906,3.778,11.269,2.178,5.156,4.5,10.216,6.462,15.463C214.487-36.844,217.3-23.721,210.961-11.988Zm0,0" transform="translate(30.016 247.356)"/>
      <path id="Path_71" data-name="Path 71" class="cls-4" d="M132.953,22.247c22.738-17.292,59.133-14.9,70.373-38.85,10.546-19.314-9.567-45.228-11.757-60.053s6.438-26.63,6.438-26.63c-7.774-6.817-13.4-14.778-16.162-24.235-17.4,1.443-33.748-.482-48.892-8.08-15.144,7.6-31.492,9.524-48.892,8.08C81.3-118.064,75.679-110.1,67.9-103.287c0,0,8.622,11.8,6.438,26.63S52.033-35.917,62.587-16.6C73.82,7.344,110.215,4.955,132.953,22.247Zm0,0" transform="translate(32.171 249.768)"/>
      <path id="Path_72" data-name="Path 72" class="cls-5" d="M190.9-2.975a35.791,35.791,0,0,0,8.382-7.316L148.018-22.764l55.227,6.221.031-.06a24.823,24.823,0,0,0,2.894-9.627l-55.506-.614-.926-1.6,56.3-5.156A57.851,57.851,0,0,0,203.6-44.19L146.67-28.853l2.448-1.853,52.359-19.446c-1.414-3.634-2.967-7.184-4.428-10.571L149.894-34.677l-3.971-.223,5.3-2.316L194.8-66.061a48.816,48.816,0,0,1-3.285-10.6c-.025-.175-.048-.349-.072-.53L148.239-41.4l-2.207-.662,2.207-1.1,43.424-44.247a40.766,40.766,0,0,1,6.294-15.873,62.933,62.933,0,0,1-5.633-5.571L141.5-40.453l.066-1.823,44.26-75.655a45.757,45.757,0,0,1-4.033-9.59c-2.6.216-5.192.354-7.749.408L151.278-73.648,146.9-73.9,163.1-127.414a87.542,87.542,0,0,1-13.183-2.033L141.7-85.056l-3.255,1.83,1.234-49.386q-3.431-1.317-6.776-2.99-3.158,1.578-6.383,2.845l1.2,49.531-3.261-1.83-8.231-44.476a87.354,87.354,0,0,1-13.171,2.093l16.2,53.538-4.368.253L92.115-127.1q-4.016-.09-8.1-.421a45.833,45.833,0,0,1-3.863,9.283l44.44,75.962.072,1.823L73.668-109.069a62.753,62.753,0,0,1-5.818,5.782,40.771,40.771,0,0,1,6.221,15.44l43.85,44.68,2.2,1.1-2.2.662L74.39-77.444c-.03.259-.066.523-.1.788a48.375,48.375,0,0,1-3.207,10.415l43.862,29.025,5.295,2.316-3.971.223-47.442-26.2c-1.462,3.393-3.027,6.961-4.447,10.6l52.659,19.566,2.449,1.853L62.23-44.274a57.768,57.768,0,0,0-2.455,10.638l56.642,5.192-.927,1.6-55.854.614a24.736,24.736,0,0,0,2.9,9.627l.042.09,55.559-6.251L66.58-10.225a36.057,36.057,0,0,0,8.46,7.34l49.946-20.222,15.233-3.941H125.942l15.227,3.941Zm0,0" transform="translate(32.221 249.768)"/>
      <path id="Path_73" data-name="Path 73" class="cls-6" d="M143.562-7.715H108.935l-6.973-4.338s-2.81-5.7-3.405-6.721a6.759,6.759,0,0,0-4.844-3.153A6.14,6.14,0,0,0,89.032-20.3a12.517,12.517,0,0,1,3.231.169c1.733.325,3.1.734,4.765,3.406s.361,7.094-1.853,10.072S85.037-4.671,83.587-10.712s5.445-11.8,6.041-16.564-11.666-8.4-15.367-17.364c-3.7-8.947,3.315-21.023,3.315-21.023s.03,10.259,3.652,15.439S94.2-41.632,99.182-38.01a14.145,14.145,0,0,1,5.6,9.043l.89-.559s3.454-3.454.331-8.8-13.592-13.008-16.985-16.5a20.08,20.08,0,0,1-6.119-15.824c.289-7.677,6.408-12.527,6.408-12.527s-2.443,7.022-.872,12.461S103.966-59.1,107.167-55.892s1.071,7.473,1.071,7.473a8.042,8.042,0,0,0,2.617-2.034c.68-1.071.782-4.567-.969-7.19S100.271-65.7,99.014-69.778s1.36-8.448,2.076-11.083c.12-1.985.391-1.9-.945-6.582s-4.47-7.7-5.584-11.275.668-8.262,1.336-11.612-1.324-7.546-1.324-7.546a19.136,19.136,0,0,1,3.514.9c1.257.542,6.305,3.333,7.112,6.306s.9,8.737,0,10.445.361,6.035,1.8,6.035,1.8-3.785,1.528-5.132.09-4.772,2.7-12.159S120.6-124,120.6-124s-3.244,9.362-2.431,14.855,9.548,12.612,10.451,12.7.089-4.049-.9-6.486-5.494-7.834-5.223-15.126S133.213-129.5,133.213-129.5s-5.493,6.215-4.416,11.264,1.4,6.948,7.19,11.269a22.334,22.334,0,0,1,7.575,10.747,15.723,15.723,0,0,1,1-4.478,33.462,33.462,0,0,0,2.552-7.652,10.924,10.924,0,0,0-1.318-7.42,9.6,9.6,0,0,1,3.635,1.932c2.238,1.7,6.414,4.79,7.105,11.817s-6.335,15.078-7.13,17.448-.391,3.785.385,4.76,4.435,6.065,3.17,10.138-8.609,9.416-10.354,12.034-1.654,6.119-.975,7.19a8.1,8.1,0,0,0,2.623,2.034s-2.136-4.272,1.066-7.473,17.171-9.386,18.742-14.825-.873-12.461-.873-12.461,6.113,4.85,6.408,12.527a20.1,20.1,0,0,1-6.118,15.824c-3.4,3.5-13.869,11.149-16.992,16.5s.337,8.8.337,8.8l.89.559a14.149,14.149,0,0,1,5.6-9.043c4.981-3.622,14.339-7.022,17.954-12.214s3.652-15.439,3.652-15.439,7.01,12.076,3.316,21.023c-3.7,8.965-15.964,12.6-15.367,17.364s7.486,10.529,6.035,16.564-9.374,7.034-11.588,4.055-3.52-7.4-1.848-10.072,3.027-3.081,4.766-3.406a12.474,12.474,0,0,1,3.225-.169,6.134,6.134,0,0,0-4.675-1.624,6.773,6.773,0,0,0-4.85,3.153c-.595,1.017-3.4,6.721-3.4,6.721Zm0,0" transform="translate(39.54 253.065)"/>
      <path id="Path_74" data-name="Path 74" class="cls-2" d="M76.43,146.965c-.193.457-.367.909-.535,1.348a28.056,28.056,0,0,0-2.058,10.2,14.184,14.184,0,0,0,1,5.169c1.727,4.188,5.469,7.178,8.977,9.838,2.154,1.636,6.263,4.356,6.48,7.292a3.791,3.791,0,0,1-.018.739c-.295,2.329-1.781,4.676-3.225,7.053l.926-.921a6.974,6.974,0,0,1,5.517-1.9,7.764,7.764,0,0,1,5.578,3.635c.614,1.052,1.173,2.232,1.715,3.321.536,1.064,1.071,2.13,1.595,3.207l6.492,4.031h34.05l6.485-4.031c.53-1.077,1.06-2.143,1.6-3.207.547-1.089,1.106-2.269,1.714-3.321a7.787,7.787,0,0,1,5.577-3.635,6.981,6.981,0,0,1,5.523,1.9l.926.921c-1.449-2.377-2.936-4.724-3.224-7.053a3.712,3.712,0,0,1-.018-.739c.217-2.936,4.327-5.656,6.48-7.292,3.5-2.66,7.244-5.65,8.971-9.838a12.965,12.965,0,0,0,.795-2.8,16.452,16.452,0,0,0,.2-2.364,28,28,0,0,0-2.076-10.265c-.162-.421-.331-.853-.518-1.3-.433,4.253-1.546,9.126-3.617,12.093-3.9,5.59-12.737,8.5-18.188,12.449a13.094,13.094,0,0,0-4.308,5.4,11.6,11.6,0,0,0-.878,2.942c-.2,1.342-1.565,1.432-2.521.126-.025-.029-.054-.054-.079-.085a7.374,7.374,0,0,1-1.588-2.8,8.911,8.911,0,0,1,1.1-7.209c1.768-3.037,5.271-6.232,7.894-8.579,1.756-1.559,3.561-3.081,5.354-4.621,1.3-1.107,2.7-2.269,3.894-3.495a19.219,19.219,0,0,0,5.83-15.09,15.738,15.738,0,0,0-3.087-8.538c-.12-.163-.24-.337-.373-.505a21.325,21.325,0,0,1-.108,9.211c-1.012,3.52-6.337,7-9.279,8.887-1.938,1.245-3.923,2.418-5.878,3.634a24.316,24.316,0,0,0-3.84,2.743,4.957,4.957,0,0,0-1.449,4.074,6.9,6.9,0,0,0,.571,2.238c.367.818-.679,1.673-1.348,1.348a8.271,8.271,0,0,1-3.021-2.4,6.535,6.535,0,0,1-.578-3.627,9.943,9.943,0,0,1,1.565-4.652,18.23,18.23,0,0,1,2.491-2.749c1.131-1.1,2.286-2.172,3.406-3.279,1.426-1.42,3.737-3.8,4.337-5.745.9-2.9-1.232-7.022-3-9.219-1.354-1.7-1.215-3.748-.553-5.7a24.777,24.777,0,0,1,2.424-4.176,43.264,43.264,0,0,0,3.309-6.076,13.525,13.525,0,0,0-1.425-14.176,18.956,18.956,0,0,0-3.942-3.718,12.823,12.823,0,0,0-1.064-.734,11.111,11.111,0,0,1,.336,5.632,34.64,34.64,0,0,1-2.257,7.016c-.12.271-.24.542-.354.818a13.938,13.938,0,0,0-.927,4.152l-.373,5.962-1.594-5.759a18.1,18.1,0,0,0-1.559-3.585,20.481,20.481,0,0,0-5.65-6.618c-2.4-1.793-4.843-3.809-6.1-6.6a27.247,27.247,0,0,1-1.468-5.271c-.578-2.708.542-5.92,2.13-8.64a19.637,19.637,0,0,0-4.344,3.676,8.293,8.293,0,0,0-2.106,4.97,19.174,19.174,0,0,0,2.046,8.923c.534,1.131,1.143,2.22,1.774,3.3a21.3,21.3,0,0,1,1.329,2.485,19.129,19.129,0,0,1,.753,2.268c.331,1.209,1.342,4.837-.277,5.511a.886.886,0,0,1-.6.085c-.836-.085-2.569-1.571-3.195-2.1a36.3,36.3,0,0,1-4.47-4.512c-1.577-1.9-3.31-4.446-3.677-6.937a21.63,21.63,0,0,1,.2-6.191,52.446,52.446,0,0,1,1.228-5.668c-.331.331-.656.668-.969,1.017a26.14,26.14,0,0,0-5.457,8.688c-.8,2.256-3.153,9.188-2.665,11.63.349,1.763-.066,6.329-2.515,6.329-1.751,0-2.641-2.437-2.93-3.832a5.842,5.842,0,0,1,.241-3.67c.572-1.089.554-4.206.493-5.439a20.1,20.1,0,0,0-.578-4.278c-.59-2.172-4.573-4.807-6.54-5.644a9.741,9.741,0,0,0-1.5-.481,13.357,13.357,0,0,1,.692,6.4c-.65,3.255-2.383,7.852-1.366,11.113a23.786,23.786,0,0,0,2.605,5,25.365,25.365,0,0,1,2.984,6.306,19.794,19.794,0,0,1,1.089,5.457c-.018.488-.072.963-.1,1.456l-.006.1-.03.1c-.457,1.679-1.276,3.333-1.787,5.031a9.365,9.365,0,0,0-.3,5.493c.608,1.95,3.141,4.435,4.609,5.825,1.173,1.118,2.389,2.189,3.568,3.29a17.766,17.766,0,0,1,2.575,2.762,9.936,9.936,0,0,1,1.558,4.652,6.467,6.467,0,0,1-.578,3.627,8.213,8.213,0,0,1-3.02,2.4c-1,.464-1.871-.439-1.348-1.348a6.908,6.908,0,0,0,.578-2.238,4.94,4.94,0,0,0-1.456-4.074,24.046,24.046,0,0,0-3.839-2.743c-1.956-1.215-3.935-2.389-5.878-3.634-2.936-1.884-8.261-5.368-9.272-8.887a21.229,21.229,0,0,1-.108-9.211c-.114.149-.229.3-.337.456a15.688,15.688,0,0,0-3.123,8.587,19.173,19.173,0,0,0,5.83,15.09c1.191,1.226,2.593,2.387,3.893,3.495,1.793,1.54,3.592,3.062,5.355,4.621,2.623,2.347,6.119,5.542,7.894,8.579a8.912,8.912,0,0,1,1.1,7.209,7.385,7.385,0,0,1-1.588,2.8l-.084.085c-1.227,1.07-2.431.675-2.515-.126a11.376,11.376,0,0,0-.884-2.942,13.081,13.081,0,0,0-4.3-5.4c-5.451-3.952-14.29-6.859-18.189-12.449C77.995,156.1,76.863,151.22,76.43,146.965Zm9.988,42.683c-1.564,2.66-2.864,5.356-2.2,8.105a6.339,6.339,0,0,0,4.777,4.675c1.5.391,4,.41,5.024-.98,1.619-2.173,3.387-6.415,1.805-8.941-1.179-1.89-1.986-2.551-4.1-2.948a11.146,11.146,0,0,0-2.936-.157Zm78.959,0-2.371-.246a11.157,11.157,0,0,0-2.937.157c-2.112.4-2.923,1.058-4.1,2.948-1.576,2.526.193,6.768,1.805,8.941,1.029,1.389,3.532,1.371,5.024.98a6.337,6.337,0,0,0,4.783-4.675C168.24,195,166.94,192.308,165.377,189.648Zm0,0" transform="translate(39.892 44.359)"/>
      <path id="Path_75" data-name="Path 75" class="cls-7" d="M96.9-104h33.062v-3.983H96.9Zm0,0" transform="translate(52.355 264.689)"/>
      <path id="Path_76" data-name="Path 76" class="cls-7" d="M95.254-101.134h38.141V-105.4H95.254Zm0,0" transform="translate(51.465 266.087)"/>
      <path id="Path_77" data-name="Path 77" class="cls-7" d="M97.086-99.106h32.491v-3.52H97.086Zm0,0" transform="translate(52.455 267.585)"/>
      <path id="Path_78" data-name="Path 78" class="cls-7" d="M98.961-96.821h26.721v-3.52H98.961Zm0,0" transform="translate(53.468 268.819)"/>
      <path id="Path_79" data-name="Path 79" class="cls-7" d="M100.418-44.976h22.226v-53.08H100.418Zm0,0" transform="translate(54.255 270.054)"/>
      <path id="Path_80" data-name="Path 80" class="cls-7" d="M102.178-98.056H124.4l5.017,53.08H97.16Zm0,0" transform="translate(52.495 270.054)"/>
      <path id="Path_81" data-name="Path 81" class="cls-7" d="M105.156-44.976h7.629v-53.08h-7.629Zm0,0" transform="translate(56.815 270.054)"/>
      <path id="Path_82" data-name="Path 82" class="cls-7" d="M94.77-57.855H134.4v-5.74H94.77Zm0,0" transform="translate(51.203 288.673)"/>
      <path id="Path_83" data-name="Path 83" class="cls-7" d="M92.9-54.14h45.4v-5.74H92.9Zm0,0" transform="translate(50.192 290.68)"/>
      <path id="Path_84" data-name="Path 84" class="cls-7" d="M90.3-50.421h53.4v-5.74H90.3Zm0,0" transform="translate(48.789 292.69)"/>
      <path id="Path_85" data-name="Path 85" class="cls-7" d="M88.481-46.7h59.006V-52.45H88.481Zm0,0" transform="translate(47.805 294.695)"/>
      <path id="Path_86" data-name="Path 86" class="cls-7" d="M86.246-42.993h65.889v-5.734H86.246Zm0,0" transform="translate(46.598 296.706)"/>
      <g id="Group_56" data-name="Group 56" class="cls-8" transform="translate(0 103.233)">
        <path id="Path_87" data-name="Path 87" class="cls-1" d="M213.238,220.942c5.4-.132,10.235.457,12.8,1.973,4.723,2.768,7.376,9.67,7.376,9.67l.632,1,2.136-5.343,1.263,4.074s2.136-2.521,2.72-3.3,1.648-2.039,1.648-2.039l-.1,2.431s3.983-6.311,6.217-9.712a25.609,25.609,0,0,1,4.95-5.534l-.193,3.886,3.01-3.3,1.064,2.135s2.545-4.066,3.791-6.354,3.014-4.362,3.321-4.987a35.977,35.977,0,0,1,3.219-6.227c1.768-2.491,3.219-4.362,3.219-4.362l.421,7.683s3.526-2.292,3.737-3.218-1.66-5.921-3.321-8.1-6.029-3.014-6.029-3.014a3.468,3.468,0,0,1,1.69-1.764,6.445,6.445,0,0,1,1.306-.4s-.457-.584.464-.913a7.3,7.3,0,0,1,2.286-.259,11.483,11.483,0,0,0-1.3-2.36c-.524-.522-2.161-2.358-2.161-2.358a7.738,7.738,0,0,1,2.809-.782c.855.132,3.081.524,3.081.524a11.485,11.485,0,0,1-1.245-2.557,11.754,11.754,0,0,0-.132-1.372s-3.418-3.074-4.561-5.619.7-5.915.7-5.915l1.209.957s2.546-4.391,2.354-5.151-1.275-.926-1.842-1.414a1.375,1.375,0,0,1-.559-.913s-2.172-.416-2.383-.909a12.315,12.315,0,0,1-.066-2.732s-2.521.139-2.8-1.052a12.229,12.229,0,0,1-.211-2.8s-1.4.488-1.679-.559a18.287,18.287,0,0,1-.421-2.383s-1.263.488-1.4.066-.35-.98-.35-.98a16.978,16.978,0,0,1-6-3.594,10.645,10.645,0,0,1-2.786-4.855l1.83-.481a52.311,52.311,0,0,1-.476-5.41,17.75,17.75,0,0,1,.24-3.182s-4.934-1.836-7-3.5-4.139-3.261-4.536-3.743-4.776-3.735-4.776-3.735l2.147-.561-3.1-4.3-.4-.373,3.153-4.29L234.025,105l.116-.066s-.248-.144-.621-.379a58.409,58.409,0,0,1-4.17-4.091c-.162-1.011-.006-1.245-.006-1.245a38.626,38.626,0,0,1-3.134-2.539c-.553-.74-1.077-1.492-1.582-2.262a15.046,15.046,0,0,1-.488-3.153s-3.615-10.3.343-15.944,13.538-3.387,13.538-3.387l1.973-2.78s3.232,1.883,4.219,3.315,1.522,2.244,1.522,2.244l.451-2.6,4.391,2.87,1.71.981s-.091-3.5-.091-4.483a20.586,20.586,0,0,1,.716-3.5s3.412,3.857,6.192,5.385a18.375,18.375,0,0,1,8.254,9.777l1.576.536,1.282-1.925s6.415,4.488,8.022,8.014a28.957,28.957,0,0,1,1.925,8.448,15.342,15.342,0,0,0,1.389-2.455c.1-.535.427-2.677.427-2.677s4.488,3.742,6.414,6.739,1.391,5.018,1.391,5.018l1.5-.2-.108,3.093v1.185a7.237,7.237,0,0,1,2.563-1.829,17.671,17.671,0,0,1,4.495-.963s-2.033,4.711-2.033,8.243a9.986,9.986,0,0,0,1.925,5.878l1.81,1.456,2.492-2.129s.973,4.969,1.5,5.679a61.185,61.185,0,0,0,6.306,5.6c3.557,2.93,4.441,5.24,4.441,5.24l1.42-2.936s4.795,5.246,5.685,9.687-.006,7.581-.414,9.946a46.59,46.59,0,0,0-.9,4.585c0,1.058-.079,1.8-.079,1.8s1.739,2.147,2,2.677,2.532-1.733,2.532-1.733a23.957,23.957,0,0,1,.6,3.141v1.4h1.064s.47,2.87.47,3.267v1.072l2.4-4.2s.507,6.919-.493,10.072-1.739,3.9-1.739,3.9l1.907-.83-1.66,3.9,2.238-.079s-.9,5.385-1.87,7.418a30.88,30.88,0,0,1-2.215,3.809l1.5-.091s.089,3.8-.795,4.772a6.358,6.358,0,0,1-1.859,1.42l1.768.18s-.354,3.008-1.412,3.892a5.033,5.033,0,0,1-1.42.975l1.149.7s-1.59,2.743-2.389,3.8a13.754,13.754,0,0,1-3.008,2.4s3,2.623,3.784,5.42a9.1,9.1,0,0,1-.584,5.662l2.731.072-2.863,4.561,2.412.325s-1.841,5.433-4.9,8.375-4.652,3.544-4.652,3.544l1.714.9s-2,3.55-2.6,3.886-1.335.662-1.335.662l1.667.673s-1.468,1.944-2.4,2.281a8.306,8.306,0,0,1-1.667.4l1,.733a25.077,25.077,0,0,1-3.737,3.484c-1.066.536-3.532,1.468-3.532,1.468s-.482,1.035-.927,1.257a9.964,9.964,0,0,1-2.3.217s0,1.553-.307,1.685a26.679,26.679,0,0,1-3.014.126s.752,1.245-.174,1.245a13.549,13.549,0,0,0-3.184.933l2.48,1.919s-4.513,1.047-4.917,1.047-.559,1.613-.559,1.613l.156,2.406a21.041,21.041,0,0,1-2.172.168c-.884,0-2.5.079-2.5.079l.488,1.294a9.806,9.806,0,0,1-2.257.559H282.93l1.691,1.047a13.739,13.739,0,0,1-1.932.319c-.963.079-2.334.079-2.334.079l.967,1.534a24.786,24.786,0,0,1-3.466.319c-.8-.079-1.607-.234-1.607-.234l.242,1.607s-3.057-.319-3.948-.319h-4.826a33.524,33.524,0,0,0,3.7,2.977,38.524,38.524,0,0,0,4.669,2.575s-7.7.427-9.807.427-2.443-.325-2.443-.325l.162,1.306-3.911-1.306.163,2.443h-4.561l-3.743-1.787s-11.4,7.492-22.148,6.836-15.306-4.724-20.03-7.335-8.447-6.167-11.732-7.215-4.331-2.238-6.42-1.046-3.88,4.331-8.364,5.228-10.751.3-13.585,0a11.168,11.168,0,0,1-4.633-1.491s-5.969,1.787-8.958,1.787-9.555-.151-10.752-.89-3.255-1.132-4.6-2.582-.83-3.418-3.628-2.793-7.659,2.588-15.944,8.49-12.84,7.039-21.227,7.352a37.137,37.137,0,0,1-15.427-3l-7.07-4.3a30.327,30.327,0,0,1-11.45-1.8c-5.391-2.16-11.173-7.058-11.173-7.058a64.83,64.83,0,0,1-10-5.391c-5-3.333-6.173-6.762-6.173-6.762a21.227,21.227,0,0,1-6.257-4.488,49.7,49.7,0,0,1-4.964-6.084s-4.964-2.977-6.949-5.336-2.858-6.583-2.858-6.583a24.116,24.116,0,0,1-7.322-7.323,27.5,27.5,0,0,1-3.1-8.814l2.112.246s-4.158-4.923-5.409-9.633a24.54,24.54,0,0,1-.963-7.792l2.5,1.06S1.394,194.5.72,188.826a27.5,27.5,0,0,1,.373-9.537l2.888,2.985s-.933-4.892-1.342-8.664.9-10.157.9-10.157l1.191.259s-.229-5.391-.1-8.658,2.8-10.577,2.8-10.577l1.011,2.135s.1-7.648,1.45-11.7a27.721,27.721,0,0,1,4.47-7.751l.457,2.106s1.685-5.354,2.948-8.254,5.337-5.968,5.337-5.968l.223,5.024s3.418-5.987,4.843-8.207a13.391,13.391,0,0,1,3.484-3.568l.481,1.191a49.185,49.185,0,0,1,3.646-6.227,26.66,26.66,0,0,1,4.994-4.368L40.93,101a31.824,31.824,0,0,1,3.827-6.516A64.01,64.01,0,0,1,51.4,88.411L51.562,90a24.4,24.4,0,0,1,5.18-7.683,24.556,24.556,0,0,1,7.533-4.573l-.361,2.629s3.821-4.879,5.975-6.083a22.5,22.5,0,0,1,5.62-1.8s-2.268,2.268-2.389,4.783S73,80.734,73,80.734s4.458-7.491,10.674-8.929a29.623,29.623,0,0,1,11.438-.277,48.275,48.275,0,0,1,5.138,1.2l-3.1,2.978a21.627,21.627,0,0,1,8.628-.373,42.733,42.733,0,0,1,6.257,1.829s-5.18,4.856-6.691,5.927-7.01,6.8-7.01,6.8a42.027,42.027,0,0,1,5.716-2.587c1.787-.62,4.091-1.492,5.535-2.052a41.976,41.976,0,0,1-7.623,13.393c-2.022.987-2.371,1.1-2.371,1.1l1.017.457a58.345,58.345,0,0,1-4.85,4.747l-2.918,2.545c-4.1,2.419-3.472,3.189-3.472,3.189a23.936,23.936,0,0,1-2.683,4.777,12.3,12.3,0,0,1-3.063,2.394l2.323.072s-3.514,5.981-5.782,7.852a17.757,17.757,0,0,1-4.242,2.665l2.563.789s-3.845,4.441-5.914,5.722-4.537,2.96-4.537,2.96l5.03-.2s-2.96,3.55-4.44,5.126a24.309,24.309,0,0,1-4.38,3.285h2.377s-1.968,4-3.135,5.836a14.888,14.888,0,0,1-3.237,3.358,12.859,12.859,0,0,1-.626,5.584,13.79,13.79,0,0,1-3.087,4.969l1.625-.685s.433,6.432-.686,9.687a16.186,16.186,0,0,1-2.226,4.627l.866.265s2.148,6.546,1.462,10.107a27.311,27.311,0,0,1-.981,4.217,31.973,31.973,0,0,1,5.65,7.449c2.329,4.368,1.956,5.5,1.956,5.5s4.176,2.851,5.578,4.693a21.149,21.149,0,0,1,1.937,2.9l.2-1.07s8.141,4.592,9.549,6.786a33.566,33.566,0,0,1,2.371,4.484l.969-1.848s5.716,3.712,7.563,5.379a18.038,18.038,0,0,1,3.333,5.078,16.272,16.272,0,0,1,9.182-11.25c2.75-1.209,6.775-1.59,11.486-1.288,15.138,5.962,32.563,9.242,44.771,18.483l3.718,2.816,3.718-2.816C180.753,230.166,198.124,226.882,213.238,220.942Zm0,0" transform="translate(0.267 -66.468)"/>
      </g>
      <g id="Group_57" data-name="Group 57" class="cls-9" transform="translate(0 97.072)">
        <path id="Path_89" data-name="Path 89" class="cls-10" d="M213.238,11.243c5.4-.132,10.235.457,12.8,1.973,4.723,2.768,7.376,9.669,7.376,9.669l.632,1,2.136-5.343,1.263,4.073s2.136-2.521,2.72-3.3,1.648-2.04,1.648-2.04l-.1,2.431S245.7,13.4,247.937,10a25.631,25.631,0,0,1,4.951-5.535L252.7,8.349l3.01-3.3,1.064,2.136s2.545-4.067,3.791-6.354,3.014-4.362,3.321-4.988a35.965,35.965,0,0,1,3.219-6.227c1.768-2.491,3.219-4.362,3.219-4.362l.42,7.683s3.526-2.292,3.737-3.219-1.66-5.921-3.321-8.1-6.029-3.014-6.029-3.014a3.467,3.467,0,0,1,1.69-1.763,6.449,6.449,0,0,1,1.306-.4s-.457-.584.464-.914a7.305,7.305,0,0,1,2.286-.259,11.477,11.477,0,0,0-1.3-2.359c-.524-.523-2.161-2.359-2.161-2.359a7.74,7.74,0,0,1,2.81-.782c.855.132,3.081.523,3.081.523a11.5,11.5,0,0,1-1.245-2.557,11.741,11.741,0,0,0-.132-1.372s-3.418-3.075-4.561-5.62.7-5.914.7-5.914l1.209.957s2.546-4.392,2.354-5.15-1.275-.927-1.842-1.414a1.377,1.377,0,0,1-.559-.914s-2.172-.415-2.383-.909a12.307,12.307,0,0,1-.066-2.732s-2.521.138-2.8-1.053a12.219,12.219,0,0,1-.211-2.8s-1.4.487-1.679-.56a18.318,18.318,0,0,1-.421-2.383s-1.263.488-1.4.066-.35-.981-.35-.981a16.967,16.967,0,0,1-6-3.592,10.652,10.652,0,0,1-2.786-4.856l1.83-.481a52.292,52.292,0,0,1-.476-5.409,17.78,17.78,0,0,1,.24-3.184s-4.934-1.834-7-3.5-4.139-3.261-4.536-3.743-4.776-3.735-4.776-3.735l2.147-.561-3.1-4.3-.4-.373,3.153-4.29-4.165-3.64.116-.066s-.248-.145-.621-.379c-1.468-1.306-2.863-2.672-4.17-4.093-.162-1.01-.006-1.245-.006-1.245a38.664,38.664,0,0,1-3.134-2.54c-.553-.739-1.077-1.491-1.582-2.261a15.052,15.052,0,0,1-.488-3.153s-3.615-10.3.343-15.945,13.538-3.387,13.538-3.387l1.973-2.78s3.232,1.884,4.219,3.316,1.522,2.244,1.522,2.244l.451-2.6,4.391,2.87,1.71.981s-.091-3.495-.091-4.482a20.585,20.585,0,0,1,.716-3.5s3.412,3.857,6.192,5.385a16.5,16.5,0,0,1,5.83,5.2,16.633,16.633,0,0,1,2.424,4.579l1.576.536,1.282-1.925s6.415,4.488,8.022,8.014a28.955,28.955,0,0,1,1.925,8.447,15.371,15.371,0,0,0,1.389-2.454c.1-.536.427-2.679.427-2.679s4.488,3.743,6.414,6.739,1.391,5.018,1.391,5.018l1.5-.2-.108,3.093v1.186a7.229,7.229,0,0,1,2.563-1.83,17.708,17.708,0,0,1,4.495-.963s-2.033,4.712-2.033,8.244a9.986,9.986,0,0,0,1.925,5.878L299.933-88l2.492-2.129s.973,4.969,1.5,5.679a61.185,61.185,0,0,0,6.306,5.6c3.557,2.93,4.441,5.24,4.441,5.24l1.42-2.936s4.795,5.247,5.685,9.687-.006,7.581-.414,9.946a46.632,46.632,0,0,0-.9,4.585c0,1.059-.079,1.8-.079,1.8s1.739,2.148,2,2.677,2.532-1.733,2.532-1.733a23.984,23.984,0,0,1,.6,3.141v1.4h1.064s.47,2.87.47,3.267v1.071l2.4-4.2s.507,6.919-.493,10.072-1.739,3.9-1.739,3.9l1.907-.83-1.66,3.9,2.238-.078s-.9,5.385-1.87,7.419a30.8,30.8,0,0,1-2.215,3.809l1.5-.09s.089,3.8-.795,4.771a6.363,6.363,0,0,1-1.859,1.42l1.768.181s-.354,3.008-1.412,3.893a5.065,5.065,0,0,1-1.42.975l1.149.7s-1.59,2.744-2.389,3.8a13.729,13.729,0,0,1-3.008,2.395s3,2.623,3.784,5.421a9.1,9.1,0,0,1-.584,5.662l2.731.072-2.863,4.561,2.412.325s-1.841,5.433-4.9,8.375-4.652,3.544-4.652,3.544l1.714.9s-2,3.55-2.6,3.887-1.335.662-1.335.662l1.667.674s-1.468,1.943-2.4,2.28a8.288,8.288,0,0,1-1.667.4l1,.734a25.049,25.049,0,0,1-3.737,3.484c-1.066.536-3.532,1.468-3.532,1.468s-.482,1.035-.927,1.257a9.992,9.992,0,0,1-2.3.217s0,1.552-.307,1.685a26.647,26.647,0,0,1-3.014.126s.752,1.245-.174,1.245a13.559,13.559,0,0,0-3.184.932l2.48,1.919s-4.513,1.047-4.917,1.047-.559,1.613-.559,1.613l.156,2.407a20.968,20.968,0,0,1-2.172.169c-.884,0-2.5.078-2.5.078l.488,1.294a9.8,9.8,0,0,1-2.257.56H282.93l1.691,1.047a13.688,13.688,0,0,1-1.932.319c-.963.078-2.334.078-2.334.078l.967,1.534a24.859,24.859,0,0,1-3.466.319c-.8-.078-1.607-.235-1.607-.235L276.493,63s-3.057-.319-3.948-.319h-4.826a33.6,33.6,0,0,0,3.7,2.978,38.548,38.548,0,0,0,4.669,2.575s-7.7.427-9.807.427-2.443-.325-2.443-.325L264,69.641l-3.911-1.306.163,2.443h-4.561l-3.743-1.787s-11.4,7.491-22.148,6.835S214.5,71.1,209.772,68.492s-8.447-6.167-11.732-7.214-4.331-2.238-6.42-1.047-3.88,4.332-8.364,5.229-10.751.295-13.585,0a11.166,11.166,0,0,1-4.633-1.492s-5.969,1.787-8.958,1.787-9.555-.15-10.752-.89-3.255-1.131-4.6-2.581-.83-3.418-3.628-2.792-7.659,2.587-15.944,8.49-12.84,7.04-21.227,7.352a37.157,37.157,0,0,1-15.427-3l-7.07-4.3a30.346,30.346,0,0,1-11.45-1.8c-5.391-2.16-11.173-7.058-11.173-7.058a64.814,64.814,0,0,1-10-5.391c-5-3.333-6.173-6.763-6.173-6.763A21.2,21.2,0,0,1,32.38,42.53a49.7,49.7,0,0,1-4.964-6.083s-4.964-2.978-6.949-5.337-2.858-6.582-2.858-6.582a24.109,24.109,0,0,1-7.322-7.322,27.511,27.511,0,0,1-3.1-8.815l2.112.247S5.136,3.716,3.885-1a24.535,24.535,0,0,1-.963-7.792l2.5,1.059S1.394-15.2.72-20.875a27.5,27.5,0,0,1,.373-9.537l2.888,2.984s-.933-4.892-1.342-8.664.9-10.156.9-10.156l1.191.259s-.229-5.391-.1-8.658,2.8-10.577,2.8-10.577l1.011,2.136s.1-7.647,1.45-11.7a27.724,27.724,0,0,1,4.47-7.75l.457,2.106s1.685-5.354,2.948-8.254S23.1-94.652,23.1-94.652l.223,5.024s3.418-5.987,4.843-8.207a13.387,13.387,0,0,1,3.484-3.569l.481,1.192a49.2,49.2,0,0,1,3.646-6.227,26.657,26.657,0,0,1,4.994-4.368l.156,2.112a31.829,31.829,0,0,1,3.827-6.517,64.116,64.116,0,0,1,6.643-6.076l.162,1.588a24.388,24.388,0,0,1,5.18-7.683,24.553,24.553,0,0,1,7.533-4.573l-.361,2.629s3.821-4.88,5.975-6.083a22.54,22.54,0,0,1,5.62-1.805s-2.268,2.269-2.389,4.784-.12,3.466-.12,3.466,4.458-7.492,10.674-8.929a29.615,29.615,0,0,1,11.438-.277,48.29,48.29,0,0,1,5.138,1.2L97.145-134a21.614,21.614,0,0,1,8.628-.373,42.658,42.658,0,0,1,6.257,1.828s-5.18,4.857-6.691,5.927-7.01,6.8-7.01,6.8a42.023,42.023,0,0,1,5.716-2.588c1.787-.619,4.091-1.491,5.535-2.052a41.966,41.966,0,0,1-7.623,13.394c-2.022.986-2.371,1.1-2.371,1.1l1.017.456a58.009,58.009,0,0,1-4.85,4.747l-2.918,2.546c-4.1,2.418-3.472,3.188-3.472,3.188a23.952,23.952,0,0,1-2.684,4.778,12.315,12.315,0,0,1-3.063,2.394l2.323.072s-3.514,5.981-5.782,7.852a17.756,17.756,0,0,1-4.242,2.665l2.563.789s-3.845,4.441-5.914,5.722-4.537,2.96-4.537,2.96l5.03-.2s-2.96,3.55-4.44,5.126a24.269,24.269,0,0,1-4.38,3.285h2.377s-1.968,4-3.135,5.836a14.865,14.865,0,0,1-3.237,3.357,12.858,12.858,0,0,1-.626,5.584,13.793,13.793,0,0,1-3.087,4.97l1.625-.686s.433,6.432-.686,9.687A16.178,16.178,0,0,1,55.244-30.2l.866.265s2.148,6.546,1.462,10.108a27.38,27.38,0,0,1-.981,4.218,31.969,31.969,0,0,1,5.65,7.449c2.329,4.368,1.956,5.5,1.956,5.5S68.372.19,69.774,2.031a21.123,21.123,0,0,1,1.937,2.9l.2-1.071s8.141,4.591,9.549,6.787a33.572,33.572,0,0,1,2.371,4.483l.969-1.847s5.716,3.712,7.563,5.379A18.036,18.036,0,0,1,95.7,23.739a16.273,16.273,0,0,1,9.182-11.251c2.75-1.209,6.775-1.589,11.486-1.288,15.138,5.963,32.563,9.242,44.771,18.484l3.718,2.816,3.718-2.816C180.753,20.466,198.124,17.181,213.238,11.243Zm0,0" transform="translate(0.267 149.393)"/>
      </g>
      <path id="Path_91" data-name="Path 91" class="cls-2" d="M137.306,188.772a100.27,100.27,0,0,1,10.631-5.294c5.969-2.528,17.378-9.152,25.4-11.865s16.606-4.163,22.85-.933,7.575,11.384,7.575,11.384-2.377,8.958-7.983,10.548-8.5-1.319-9.712-2.155-5.041-.932-5.041-.932,3.681,1.228,5.319,3.273,8.345,2.8,11.119.9a19.946,19.946,0,0,0,5.228-6.132c.559-.915,1.871-3.923,1.871-3.923s.277,10.74-3.273,13.917-5.416,3.737-5.416,3.737l.229,2.039s6.2-.2,9.4-.619,6.709-1.029,6.709-1.029-2.48,5.368-10.428,7.022-12.7.1-15.486-1.24-8.351-5.1-14.585-5.476a23.979,23.979,0,0,0-11.082,2.052s7.424-.932,12.755.277,14.283,7,20.107,7.449,14.7-3.141,14.7-3.141a1.04,1.04,0,0,1,.091,1.107c-.277.733-5.331,3.309-5.331,3.309s5.409,5.157,9.453,6.9,7.358,3.11,7.358,3.11-11.389,6.331-20.763,4.681a44.788,44.788,0,0,1-20.3-9c-4.849-3.681-12.792-7.766-16.943-6.557s-3,4.518-8.093,5.673a24.272,24.272,0,0,1-9.933.47,4.259,4.259,0,0,1-3.087-1.613s-1.257,1.757-2.027,1.2-1.265-2.25-1.9-2.112-1.329,2.25-2.31,2.25-1.263-1.2-1.613-1.052-3.153,1.474-4.627,1.474-1.938-.006-3.814-.006a16.344,16.344,0,0,1-2.918-.211,5.024,5.024,0,0,1-2.774-.072,6.477,6.477,0,0,1-1.805-.975s-1.6-1.046-3.472-2.437-1.324-3.489-4.657-3.141-9.476,2.257-16.366,7.72c-6.889,5.482-15.764,9.217-25.529,7.96s-13.67-4.188-13.67-4.188a108.711,108.711,0,0,0,10.6-5.577,38.546,38.546,0,0,0,7.81-6.7s8.231,1.4,13.676-.7,11.42-5.553,16.245-5.685a79.817,79.817,0,0,1,9.867.439,22.345,22.345,0,0,0-10.421-2.725c-5.517.132-16.895,7.58-24.759,7.3s-17.244-5.548-17.244-5.548,8.55-.139,11.865-.139,6.065.139,6.065.139l.078-2.118s-5.457-2.545-8.49-10.277c-1.125-2.851-.83-6.329.319-9.668a25.894,25.894,0,0,0,1.059,4.157,13.87,13.87,0,0,0,7.328,8.02c3.839,1.847,8.772-.139,10.487-1.787s5.614-3.014,5.614-3.014a8.229,8.229,0,0,0-3.285.072c-1.649.41-7.2,3.766-9.115,3.7a10.283,10.283,0,0,1-8.7-5.348A20.551,20.551,0,0,1,70,178.984c2.262-4.495,5.9-8.261,9.362-9.128,6.624-1.66,17.906-.464,29.229,5.511s16.57,8.851,20.072,10.289,5.764,1.853,6.178,2.78-6.178-.1-9.368-1.445-16.365-9.26-24.5-12.25-19.663-5.9-25.511.24-.511,14.554,2.557,14.339,7.022-5.416,15.872-3.37,12.479,4.693,20.24,8.291,16.372,6.72,24.609,6.72,27.3-11.54,36.232-14.144,15.018.126,17.256,1.245,2.606,1.613,4.964.248,4.1-5.337,3.105-9.314-7.925-9.086-17.968-7.256c-4.06.739-11.683,4.1-19.235,7.563C151.885,184.441,139.977,190.259,137.306,188.772Zm-.812,14.459c1.607,0-.343.025,6.317-.692s19.742-8.105,24.964-9.724,12.546,2.161,15.788,4.863,9.724,3.513,9.724,3.513l-.18,2.07s-4.952-.722-7.834-2.432-6.306-4.236-12.606-5.132-18.183,7.293-19.266,7.467a4.615,4.615,0,0,1-2.611-.9,3.478,3.478,0,0,0-1.979.091,11.79,11.79,0,0,0-2.793,1.617,2.04,2.04,0,0,0-1.619-.36,4.472,4.472,0,0,0-1.979,1.263,2.08,2.08,0,0,1-.721-.27,3.881,3.881,0,0,0-2.793-.1c-1.439.367-.806,2.528-2.412,2.708-1.607-.18-.975-2.341-2.414-2.708a3.873,3.873,0,0,0-2.791.1,2.09,2.09,0,0,1-.722.27,4.514,4.514,0,0,0-1.979-1.263,2.029,2.029,0,0,0-1.619.36,11.8,11.8,0,0,0-2.792-1.617,3.478,3.478,0,0,0-1.979-.091,4.616,4.616,0,0,1-2.611.9c-1.083-.174-12.966-8.368-19.266-7.467s-9.723,3.418-12.605,5.132-7.834,2.432-7.834,2.432l-.181-2.07s6.486-.812,9.723-3.513,10.565-6.48,15.788-4.863,18.3,9,24.963,9.724S134.888,203.231,136.495,203.231Zm3.321,3.412c1.058-.139,1.191,3.646,2.714,6.029s3.634,3.387,3.1,3.911c-.53.542-3.435-.987-4.561-3.045S139.087,207.305,139.816,206.643Zm4.079-.2c.975-.126,1.1,3.376,2.5,5.577s3.352,3.124,2.865,3.617-3.171-.921-4.213-2.816S143.221,207.057,143.894,206.438Zm3.219-1.191c.915-.116,1.029,3.153,2.341,5.215s3.141,2.925,2.683,3.382-2.967-.861-3.942-2.635S146.488,205.825,147.113,205.247Zm3.875-.4c.806-.1.909,2.791,2.07,4.621s2.779,2.588,2.377,3-2.631-.764-3.49-2.334S150.43,205.355,150.989,204.85Zm-17.823,1.793c-1.052-.139-1.184,3.646-2.706,6.029s-3.635,3.387-3.105,3.911c.53.542,3.436-.987,4.561-3.045S133.895,207.305,133.166,206.643Zm-4.073-.2c-.975-.126-1.1,3.376-2.5,5.577s-3.357,3.124-2.864,3.617,3.171-.921,4.206-2.816S129.767,207.057,129.094,206.438Zm-3.219-1.191c-.914-.116-1.029,3.153-2.346,5.215s-3.141,2.925-2.684,3.382,2.972-.861,3.941-2.635S126.5,205.825,125.874,205.247Zm-3.875-.4c-.806-.1-.909,2.791-2.07,4.621s-2.786,2.588-2.377,3,2.629-.764,3.484-2.334S122.553,205.355,122,204.85Zm0,0" transform="translate(28.726 91.251)"/>
      <path id="Path_92" data-name="Path 92" class="cls-2" d="M70.215,78.874c-.09.09-32.4,33.188-41.444,49.114a89.442,89.442,0,0,0-10.9,39.927A78.06,78.06,0,0,0,26.25,206.2c4.007,7.845,10.234,15.035,17.268,21.372a166.077,166.077,0,0,0,29.344,20.535c2.587,1.456,5.337,2.725,7.725,3.82,1.149.536,2.22,1.035,3.189,1.511L82.759,255.5c-.9-.439-1.98-.938-3.135-1.474-2.443-1.131-5.241-2.418-7.888-3.9a168.579,168.579,0,0,1-29.753-20.836c-7.232-6.511-13.64-13.91-17.785-22.034a80.409,80.409,0,0,1-8.628-39.4,91.8,91.8,0,0,1,11.2-41c9.194-16.185,41.7-49.482,41.792-49.578Zm12.671,7.352c-.09.09-31.889,31.8-41.173,49.078a65.973,65.973,0,0,0-8.159,32.719c.193,10.482,2.936,22.034,9.4,34.6,4.705,9.134,12.948,17.334,21.961,24.344a217.444,217.444,0,0,0,26.787,17.334l-1.125,2a219.607,219.607,0,0,1-27.075-17.515C54.264,221.6,45.8,213.156,40.919,203.68c-6.643-12.9-9.464-24.8-9.657-35.619a68.168,68.168,0,0,1,8.429-33.845c9.452-17.587,41.474-49.524,41.564-49.62Zm0,0" transform="translate(8.389 41.784)"/>
      <path id="Path_93" data-name="Path 93" class="cls-2" d="M28.633,193.572S37.261,196.5,41,195.936s8.472-4.482,13.357-5.3a36.342,36.342,0,0,1,9.446-.162,14.9,14.9,0,0,0,3.5-.975l1.468.812L64.86,191.7S59,200,50.287,201.224,31.966,197.4,28.633,193.572Zm0,0" transform="translate(15.47 102.421)"/>
      <path id="Path_94" data-name="Path 94" class="cls-2" d="M37.984,201.631s8.923,1.847,12.569.818,7.852-5.493,12.6-6.9a35.927,35.927,0,0,1,9.356-1.329,14.966,14.966,0,0,0,3.351-1.4l1.552.627L73.706,195.3s-4.789,8.965-13.285,11.25S41.769,205.018,37.984,201.631Zm0,0" transform="translate(20.523 104.211)"/>
      <path id="Path_95" data-name="Path 95" class="cls-2" d="M20.918,185.926s6.679,2.93,10.457,2.642,8.779-3.832,13.712-4.279a36.206,36.206,0,0,1,9.428.548,14.838,14.838,0,0,0,3.568-.716l1.4.927-4,1.089s-6.468,7.84-15.247,8.405a21.547,21.547,0,0,1-11.715-2.809C25.316,190.036,22.392,187.906,20.918,185.926Zm0,0" transform="translate(11.302 99.513)"/>
      <path id="Path_96" data-name="Path 96" class="cls-2" d="M13.828,177.914s6.4,3.478,10.186,3.526,9.079-3.056,14.031-3.068a36.26,36.26,0,0,1,9.35,1.36,14.941,14.941,0,0,0,3.61-.4l1.318,1.041-4.079.739s-7.124,7.25-15.92,7.051A21.53,21.53,0,0,1,20.9,184.346C17.853,182.379,15.128,180,13.828,177.914Zm0,0" transform="translate(7.471 96.159)"/>
      <path id="Path_97" data-name="Path 97" class="cls-2" d="M7.094,168.391s5.746,4.47,9.482,5.132,9.452-1.546,14.344-.764a36.07,36.07,0,0,1,9,2.857,15.116,15.116,0,0,0,3.628.186l1.131,1.24-4.146.06s-8.2,6.01-16.847,4.391a21.486,21.486,0,0,1-10.662-5.613C10.343,173.445,8.032,170.664,7.094,168.391Zm0,0" transform="translate(3.833 91.014)"/>
      <path id="Path_98" data-name="Path 98" class="cls-2" d="M2.347,144.047s4.206,6.2,7.25,8.61,8.062,3.892,12.088,7a37.235,37.235,0,0,1,6.721,6.985,15.2,15.2,0,0,0,3.177,1.948l.409,1.667-3.766-1.967s-10.006,2.383-17.009-3.309c-3.61-2.937-5.878-7.54-7.19-11.276C2.8,150.2,2.083,146.562,2.347,144.047Zm0,0" transform="translate(1.239 77.861)"/>
      <path id="Path_99" data-name="Path 99" class="cls-2" d="M3.125,156.883s5.728,4.813,9.314,6.317,8.821,1.559,13.532,3.459a37.179,37.179,0,0,1,8.363,4.9,15.263,15.263,0,0,0,3.586,1.017l.848,1.493-4.164-.872s-8.983,5.012-17.262,1.431c-4.272-1.847-7.708-5.667-9.976-8.9C5.231,162.682,3.552,159.368,3.125,156.883Zm0,0" transform="translate(1.688 84.796)"/>
      <path id="Path_100" data-name="Path 100" class="cls-2" d="M4.355,131.57s2.491,7.058,4.819,10.163c2.328,3.122,6.8,5.83,9.9,9.855a37.082,37.082,0,0,1,4.717,8.467,15.03,15.03,0,0,0,2.581,2.7l-.03,1.72-3.141-2.865s-10.283-.24-15.607-7.532c-2.738-3.761-3.76-8.79-4.079-12.732C3.224,137.636,3.459,133.93,4.355,131.57Zm0,0" transform="translate(1.836 71.12)"/>
      <path id="Path_101" data-name="Path 101" class="cls-2" d="M7.193,119.52s1.233,7.376,2.984,10.848,5.692,6.907,8.05,11.42a36.927,36.927,0,0,1,3.177,9.145,15.28,15.28,0,0,0,2.076,3.111l-.325,1.684-2.6-3.362S10.466,150.343,6.5,142.239c-2.052-4.176-2.19-9.308-1.817-13.25C5.033,125.3,5.906,121.679,7.193,119.52Zm0,0" transform="translate(2.44 64.609)"/>
      <path id="Path_102" data-name="Path 102" class="cls-2" d="M11.188,108.516s.325,7.058,1.576,10.511,4.561,7.13,6.263,11.618a34.927,34.927,0,0,1,1.949,8.946,14.261,14.261,0,0,0,1.595,3.141l-.493,1.546-2.058-3.447S10.785,137.8,7.969,129.743c-1.45-4.146-1-8.971-.2-12.623A23.329,23.329,0,0,1,11.188,108.516Zm0,0" transform="translate(3.794 58.664)"/>
      <path id="Path_103" data-name="Path 103" class="cls-2" d="M16.152,100.7s-.313,6.155.542,9.26,3.568,6.559,4.741,10.6a29.437,29.437,0,0,1,1.023,7.929,12.115,12.115,0,0,0,1.191,2.859l-.59,1.3-1.588-3.164s-8.183-3.376-10.072-10.6c-.975-3.724-.15-7.882.884-10.993A19.993,19.993,0,0,1,16.152,100.7Zm0,0" transform="translate(5.924 54.441)"/>
      <path id="Path_104" data-name="Path 104" class="cls-2" d="M22.052,97.1s-.908,5.079-.529,7.737,2.262,4.669,2.81,8.14a34.313,34.313,0,0,1,.006,7.834,10.187,10.187,0,0,0,.686,2.5l-.626,1.023-.981-2.8s-6.468-3.664-7.232-9.85C15.59,106.851,18.249,99.775,22.052,97.1Zm0,0" transform="translate(8.7 52.495)"/>
      <path id="Path_105" data-name="Path 105" class="cls-2" d="M28.713,90.234s-1.582,4.741-1.594,7.346,1.51,4.8,1.546,8.2a33.359,33.359,0,0,1-1.1,7.509,9.832,9.832,0,0,0,.3,2.5l-.74.89-.548-2.816s-5.686-4.428-5.547-10.469C21.144,98.676,25.007,93.207,28.713,90.234Zm0,0" transform="translate(11.364 48.787)"/>
      <path id="Path_106" data-name="Path 106" class="cls-2" d="M37.025,83.574S34.78,88.045,34.4,90.62s.818,4.958.367,8.339a33.514,33.514,0,0,1-2.154,7.28,9.949,9.949,0,0,0-.054,2.5l-.86.782-.138-2.864s-5-5.186-4-11.155C28.33,90.855,32.927,85.993,37.025,83.574Zm0,0" transform="translate(14.816 45.188)"/>
      <path id="Path_107" data-name="Path 107" class="cls-2" d="M45.166,76.309s-2.605,4.266-3.2,6.805.4,5.006-.325,8.339a33.344,33.344,0,0,1-2.75,7.082,9.745,9.745,0,0,0-.259,2.491l-.921.7.09-2.87s-4.549-5.584-3.063-11.444C35.9,82.843,40.888,78.378,45.166,76.309Zm0,0" transform="translate(18.611 41.263)"/>
      <path id="Path_108" data-name="Path 108" class="cls-2" d="M51.171,72.465a19.408,19.408,0,0,0-2.756,4.717c-.74,2.2-.072,5.493-1,8.375a29.455,29.455,0,0,1-3.032,6.029,8.792,8.792,0,0,0-.445,2.19l-.872.541.325-2.527s-3.55-5.331-1.733-10.385C43.072,77.453,47.212,73.927,51.171,72.465Zm0,0" transform="translate(22.228 39.186)"/>
      <path id="Path_109" data-name="Path 109" class="cls-2" d="M70.265,73.087a20.535,20.535,0,0,0-5.59,1.613c-2.184,1.149-4.091,4.176-6.925,5.716a31.5,31.5,0,0,1-6.769,2.425,9.475,9.475,0,0,0-1.943,1.36l-1.077-.223,2.112-1.709s1.179-6.715,6.294-9.278C60.355,70.981,66.132,71.306,70.265,73.087Zm0,0" transform="translate(25.913 38.726)"/>
      <path id="Path_110" data-name="Path 110" class="cls-2" d="M61.453,75.316a20.565,20.565,0,0,0-3.1,4.922c-.86,2.31-.265,5.842-1.354,8.881a31.718,31.718,0,0,1-3.442,6.306,9.252,9.252,0,0,0-.548,2.31l-.951.554L52.5,95.6s-3.592-5.794-1.486-11.113C52.656,80.34,57.187,76.736,61.453,75.316Zm0,0" transform="translate(27.204 40.727)"/>
      <path id="Path_111" data-name="Path 111" class="cls-2" d="M76.113,75.094a20.553,20.553,0,0,0-5.186,2.635C69,79.269,67.7,82.6,65.2,84.654a31.32,31.32,0,0,1-6.2,3.646A9.389,9.389,0,0,0,57.353,90l-1.1-.018,1.751-2.076s-.1-6.817,4.434-10.3C65.987,74.9,71.727,74.125,76.113,75.094Zm0,0" transform="translate(30.396 40.39)"/>
      <path id="Path_112" data-name="Path 112" class="cls-2" d="M75.753,82.164a19.377,19.377,0,0,1-4.639,2.9c-2.172.806-5.493.235-8.351,1.251a29.209,29.209,0,0,0-5.939,3.219,8.751,8.751,0,0,1-2.178.505l-.517.891,2.521-.4s5.439,3.393,10.445,1.426C71,90.419,74.405,86.171,75.753,82.164Zm0,0" transform="translate(29.245 44.426)"/>
      <path id="Path_113" data-name="Path 113" class="cls-2" d="M71.067,88.723a19.366,19.366,0,0,1-4.886,2.455c-2.238.6-5.493-.271-8.43.469A29.594,29.594,0,0,0,51.536,94.3a8.746,8.746,0,0,1-2.214.3l-.6.842,2.545-.168s5.1,3.881,10.265,2.389C65.574,96.5,69.352,92.591,71.067,88.723Zm0,0" transform="translate(26.327 47.97)"/>
      <path id="Path_114" data-name="Path 114" class="cls-2" d="M65.094,95.391a19.36,19.36,0,0,1-4.886,2.455c-2.238.6-5.493-.277-8.429.469a30.126,30.126,0,0,0-6.221,2.647,8.67,8.67,0,0,1-2.208.3l-.6.848,2.545-.169s5.1,3.881,10.265,2.388C59.595,103.165,63.379,99.253,65.094,95.391Zm0,0" transform="translate(23.1 51.572)"/>
      <path id="Path_115" data-name="Path 115" class="cls-2" d="M61.955,101.215a19.985,19.985,0,0,1-5.12,2.292c-2.322.511-5.614-.536-8.658.091a29.779,29.779,0,0,0-6.492,2.431,9.106,9.106,0,0,1-2.28.2l-.65.836,2.617-.055s5.042,4.213,10.409,2.925C55.962,108.929,60.017,105.1,61.955,101.215Zm0,0" transform="translate(20.938 54.719)"/>
      <path id="Path_116" data-name="Path 116" class="cls-2" d="M52.5,82.047a20.289,20.289,0,0,0-2.485,5.168c-.59,2.359.391,5.752-.337,8.845a31.534,31.534,0,0,1-2.665,6.564,9.243,9.243,0,0,0-.277,2.322l-.872.638L46,102.913s-4.164-5.271-2.7-10.716C44.454,87.949,48.486,83.912,52.5,82.047Zm0,0" transform="translate(23.228 44.363)"/>
      <path id="Path_117" data-name="Path 117" class="cls-2" d="M45.721,89.652A20.887,20.887,0,0,0,43.32,95c-.542,2.431.548,5.878-.114,9.061a31.571,31.571,0,0,1-2.551,6.774,9.569,9.569,0,0,0-.223,2.383l-.872.681.066-2.732s-4.4-5.282-3.039-10.884C37.647,95.9,41.66,91.668,45.721,89.652Zm0,0" transform="translate(19.627 48.472)"/>
      <path id="Path_118" data-name="Path 118" class="cls-2" d="M38.974,97.188a20.715,20.715,0,0,0-2.118,5.469c-.415,2.449.854,5.83.361,9.043a31.947,31.947,0,0,1-2.19,6.908,9.334,9.334,0,0,0-.1,2.389l-.836.727-.078-2.737s-4.669-5.043-3.61-10.71C31.237,103.855,35.021,99.414,38.974,97.188Zm0,0" transform="translate(16.344 52.543)"/>
      <path id="Path_119" data-name="Path 119" class="cls-2" d="M57.021,107.188a19.985,19.985,0,0,1-5.12,2.292c-2.322.511-5.614-.536-8.658.089A30.092,30.092,0,0,0,36.751,112a9.191,9.191,0,0,1-2.28.209l-.65.83,2.617-.054s5.042,4.213,10.409,2.925C51.028,114.9,55.084,111.068,57.021,107.188Zm0,0" transform="translate(18.273 57.947)"/>
      <path id="Path_120" data-name="Path 120" class="cls-2" d="M52.727,114.137a42.425,42.425,0,0,1-4.549,1.335c-2.322.511-5.614-.536-8.658.091a30.035,30.035,0,0,0-6.492,2.431,9.488,9.488,0,0,1-2.28.209l-.65.83,2.617-.054s5.042,4.213,10.409,2.925A14.648,14.648,0,0,0,52.727,114.137Zm0,0" transform="translate(16.262 61.701)"/>
      <path id="Path_121" data-name="Path 121" class="cls-2" d="M30.392,105.5a20.856,20.856,0,0,0-.86,5.807c.138,2.472,2.124,5.5,2.353,8.741a31.782,31.782,0,0,1-.614,7.221,9.386,9.386,0,0,0,.433,2.352l-.656.89-.686-2.646s-5.662-3.894-5.878-9.658C24.315,113.709,27.028,108.547,30.392,105.5Zm0,0" transform="translate(13.224 57.032)"/>
      <path id="Path_122" data-name="Path 122" class="cls-2" d="M23.631,116.207a20.752,20.752,0,0,0,.524,5.836c.722,2.377,3.357,4.855,4.338,7.948a31.447,31.447,0,0,1,1.1,7.167,9.306,9.306,0,0,0,.975,2.184l-.427,1.017-1.288-2.414s-6.42-2.449-7.984-8.008C19.654,125.612,21.08,119.956,23.631,116.207Zm0,0" transform="translate(11.038 62.819)"/>
      <path id="Path_123" data-name="Path 123" class="cls-2" d="M47.745,119.566a40.249,40.249,0,0,1-4.043,2.461c-2.106,1.107-5.559.95-8.339,2.352a30,30,0,0,0-5.632,4.032,9.029,9.029,0,0,1-2.148.793l-.415.975,2.515-.735s5.969,2.757,10.812.116A14.627,14.627,0,0,0,47.745,119.566Zm0,0" transform="translate(14.679 64.634)"/>
      <path id="Path_124" data-name="Path 124" class="cls-2" d="M44.142,125.2a39.78,39.78,0,0,1-3.406,3.3c-1.811,1.54-5.217,2.147-7.617,4.116a30.277,30.277,0,0,0-4.615,5.174,8.869,8.869,0,0,1-1.919,1.252l-.187,1.034,2.292-1.263s6.426,1.379,10.571-2.263A14.62,14.62,0,0,0,44.142,125.2Zm0,0" transform="translate(14.263 67.678)"/>
      <path id="Path_125" data-name="Path 125" class="cls-2" d="M40.988,132.055a40.377,40.377,0,0,1-2.545,3.994c-1.408,1.921-4.579,3.3-6.456,5.776a30.806,30.806,0,0,0-3.285,6.1,8.953,8.953,0,0,1-1.576,1.662l.06,1.052,1.931-1.762s6.576-.151,9.759-4.658A14.635,14.635,0,0,0,40.988,132.055Zm0,0" transform="translate(14.655 71.382)"/>
      <path id="Path_126" data-name="Path 126" class="cls-2" d="M20.112,127.887a22.363,22.363,0,0,0,1.769,6.052c1.251,2.36,4.543,4.411,6.227,7.467a34.429,34.429,0,0,1,2.641,7.323,10.024,10.024,0,0,0,1.48,2.106L32,152l-1.859-2.273s-7.28-1.258-10.078-6.776C17.874,138.632,18.2,132.363,20.112,127.887Zm0,0" transform="translate(10.02 69.13)"/>
      <path id="Path_127" data-name="Path 127" class="cls-2" d="M18.493,139.4a23.265,23.265,0,0,0,3.225,5.7c1.823,2.093,5.644,3.381,8.069,6.089a35.171,35.171,0,0,1,4.416,6.774,10.54,10.54,0,0,0,2,1.781l.036,1.228-2.425-1.865s-7.653.464-11.8-4.464C18.776,150.792,17.621,144.391,18.493,139.4Zm0,0" transform="translate(9.84 75.351)"/>
      <path id="Path_128" data-name="Path 128" class="cls-2" d="M36.5,141.152a36.933,36.933,0,0,1-.987,4.176c-.632,2.058-2.936,4.182-3.8,6.865a27.367,27.367,0,0,0-.993,6.2,8.217,8.217,0,0,1-.86,1.888l.367.886,1.125-2.089s5.578-2.081,6.962-6.884A13.233,13.233,0,0,0,36.5,141.152Zm0,0" transform="translate(16.131 76.297)"/>
      <path id="Path_129" data-name="Path 129" class="cls-2" d="M21.32,152.859a23.943,23.943,0,0,0,4.44,5.055c2.268,1.72,6.384,2.226,9.392,4.428a36.119,36.119,0,0,1,5.86,5.9A10.931,10.931,0,0,0,43.4,169.6l.295,1.234-2.828-1.371s-7.605,2.075-12.81-2.01C24,164.262,21.489,158.057,21.32,152.859Zm0,0" transform="translate(11.519 82.622)"/>
      <path id="Path_130" data-name="Path 130" class="cls-2" d="M35.981,151.3a37.017,37.017,0,0,1,.608,4.254c.156,2.147-1.209,4.963-1.041,7.772a27.6,27.6,0,0,0,1.336,6.132,8.213,8.213,0,0,1-.108,2.076l.662.692.289-2.358s4.434-3.972,3.971-8.954A13.254,13.254,0,0,0,35.981,151.3Zm0,0" transform="translate(19.199 81.778)"/>
      <path id="Path_131" data-name="Path 131" class="cls-2" d="M25.762,163.363a22.981,22.981,0,0,0,5.385,3.749c2.557,1.107,6.576.625,9.946,2.015a35.786,35.786,0,0,1,6.931,4.213,10.673,10.673,0,0,0,2.575.746l.566,1.1-3-.638s-6.727,3.737-12.611,1.083C30.96,173.551,27.133,168.255,25.762,163.363Zm0,0" transform="translate(13.919 88.297)"/>
      <path id="Path_132" data-name="Path 132" class="cls-2" d="M40.332,159.363a37.525,37.525,0,0,1,1.57,4.08c.644,2.093-.066,5.2.74,7.948a28.089,28.089,0,0,0,2.72,5.788,8.3,8.3,0,0,1,.367,2.075l.812.53-.247-2.4s3.49-4.95,1.9-9.789A13.5,13.5,0,0,0,40.332,159.363Zm0,0" transform="translate(21.791 86.136)"/>
      <path id="Path_133" data-name="Path 133" class="cls-2" d="M47.457,165.129a41.653,41.653,0,0,1,2.2,4.4c.951,2.275.481,5.836,1.685,8.834a31.813,31.813,0,0,0,3.67,6.19,9.382,9.382,0,0,1,.632,2.292l.969.513-.535-2.666s3.381-5.927,1.083-11.173A15.187,15.187,0,0,0,47.457,165.129Zm0,0" transform="translate(25.641 89.252)"/>
      <path id="Path_134" data-name="Path 134" class="cls-2" d="M33.4,171.684a23.466,23.466,0,0,0,5.692,3.279c2.641.872,6.606.048,10.078,1.131a35.813,35.813,0,0,1,7.268,3.617,11.062,11.062,0,0,0,2.635.516l.656,1.047-3.045-.379s-6.378,4.308-12.473,2.159C39.457,181.382,35.191,176.431,33.4,171.684Zm0,0" transform="translate(18.045 92.793)"/>
      <path id="Path_135" data-name="Path 135" class="cls-2" d="M55.066,171.055a39.537,39.537,0,0,1,2.377,4.126c1.053,2.136.806,5.6,2.136,8.436a30.724,30.724,0,0,0,3.9,5.77,8.89,8.89,0,0,1,.74,2.172l.969.439-.674-2.538s2.93-5.927.4-10.861A14.694,14.694,0,0,0,55.066,171.055Zm0,0" transform="translate(29.752 92.453)"/>
      <path id="Path_136" data-name="Path 136" class="cls-2" d="M42.5,180.109a21.567,21.567,0,0,0,5.686,2.155c2.545.408,6.047-.933,9.386-.445a32.692,32.692,0,0,1,7.178,2.226,9.9,9.9,0,0,0,2.485.085l.758.859-2.84.1s-5.2,4.88-11.089,3.82C49.469,188.082,44.837,184.189,42.5,180.109Zm0,0" transform="translate(22.96 97.345)"/>
      <path id="Path_137" data-name="Path 137" class="cls-2" d="M51.57,185.859a18.15,18.15,0,0,0,4.94,1.288c2.16.116,4.958-1.323,7.786-1.221a27.633,27.633,0,0,1,6.185,1.211,8.5,8.5,0,0,0,2.082-.157l.71.65-2.359.342s-3.893,4.532-8.9,4.188C58.1,191.883,53.887,189.055,51.57,185.859Zm0,0" transform="translate(27.863 100.452)"/>
      <path id="Path_138" data-name="Path 138" class="cls-2" d="M147.722,89.151s2.383-.993,5.126-2.076,3.188-2.064,3.188-2.064-2.725-5.74-1.787-5.956,5.674-1,5.674-1L160,72.636s-7.438-1.011-11.337,2.527S147.722,89.151,147.722,89.151Zm14-17.99s.8,8.622-.139,8.694-5.343.65-5.343.65,2.455,5.2,2.31,5.559-5.343,2.816-6.859,3.61-3.826,1.733-3.826,1.733,6.534.776,10.215-.163a20.111,20.111,0,0,0,6.606-3.231,86.9,86.9,0,0,1,7.631,5.337,47.058,47.058,0,0,1,4.277,3.971l-.306-4.278-9.165-9.314S166.193,70.909,161.723,71.161Zm5.325,3.61s2.706-.084,6.563,2.377,5.494,3.363,5.494,3.363-2.546-3.195-3.033-5.493a19.558,19.558,0,0,1-.493-3.694s2.623,2.539,4.35,4.013a31.489,31.489,0,0,1,3.687,3.947,10.137,10.137,0,0,1,1.643,2.87s-6.072.578-7.551,3.526a10.649,10.649,0,0,0-1.066,5.746s-4.019-3.857-4.513-4.188-3.526-4.507-3.526-4.507l3.857.241S166.638,76.414,167.048,74.771ZM149.316,93.592s4.573,1.191,5.764.993a11.68,11.68,0,0,1,2.78,0l.2-1.589,4.176.4V91.6a11.859,11.859,0,0,1,7.755,2.984,83.817,83.817,0,0,1,7.352,7.756l-1.787,1.191,2.383,2.78-4.374.2s-2.78-2.383-5.366-4.771a26.071,26.071,0,0,0-6.161-3.971s2.586,3.369,3.778,4.771,2.582,2.978,2.582,2.978l-3.376-.993.795,3.779s-2.19-.4-4.176-.794-4.573-2.587-4.573-2.587l2.985.193-5.169-2.972,2.383-1.4-4.374-2.383,2.19-.993Zm36.576-2.19c.795-.993,5.764-.993,5.764-.993l-.2-5.367s-8.549-2.184-11.528,1.991-.487,10.379-.487,10.379L186,96.191Zm7.352-5.566.441,6.673-5.41.283.2,4.579-9.537,2.78a6.463,6.463,0,0,0,5.765,3.381c4.373.2,5.962-.6,5.962-.6l1.389-5.367a31.645,31.645,0,0,1,4.374,1.588,15.637,15.637,0,0,0,1.985.993l.4-2.383-.6-2.587S195.831,86.63,193.243,85.836Zm-17.49,21.871,6.36,4.374-4.176.993,3.58,3.977-1.191,2.184a27.283,27.283,0,0,0,5.962,1.985c2.588.391,8.153,6.565,8.153,6.565l.793-1.4-4.373-5.567,1.588-.2,3.778,3.184a40.184,40.184,0,0,0-.6-6.962c-.595-2.581-3.381-6.955-3.381-6.955l-4.176-2.978s-4.573-1.8-5.962-1.8a16.046,16.046,0,0,1-4.374-1.384l3.182,3.778A46.72,46.72,0,0,0,175.753,107.707Zm-16.1,1.582,7.749.8-.2-2.984,2.786.4.6-1.594,2.381,2.786,3.581,1.39,1.985,1.992-3.178-.2,3.58,4.375-1.594.992,1.594,2.184,2.582,1.594s-2.184,1.4-3.977,2.383A12.093,12.093,0,0,0,175.157,125s-5.565-.595-6.563-1.594-2.383-2.383-2.383-2.383l3.182-.595-4.772-1-2.387-1.781,3.381-1-3.778-1.588-2.582-1.589,4.772-.2-5.969-2.581Zm49.7,11.534c3.376-1.985,4.693-2.25,7.871-.265S221,123.887,221,123.887s-.927,3.724-1.919,3.724-4.759-1.865-4.759-1.865l-.632,7.008s-1.751.867-2.948-.168C208.28,130.469,205.205,125.235,209.35,120.823Zm1.155,14.086,4.074-.969.957-6.36,3.755,2.19,3.3-6.9s2.666,3.911,2.269,5.9-2.19,2.78-2.588,4.176-.2,6.161-.2,6.161l-3.965-2.448a28.593,28.593,0,0,1-4.381,1.046C212.726,137.713,210.505,134.909,210.505,134.909Zm-1.155.427.783-1.667a15.258,15.258,0,0,1-3.959-5.084c-.9-1.841-.685-4.9-.542-6.184.4-3.58,5.9-5.157,5.9-5.157l2.19-.4s1.391-6.756,0-6.756-4.374,2.389-4.374,2.389v-6.564l-2.586,1.793.6-5.367-1.788-5.168s-2.785,3.375-3.182,4.567a19.831,19.831,0,0,0-.6,3.375l-2.977-1.384-4.772-4.176-1,3.183-4.368,1.588s3.375,1.787,4.17,2.78a18.9,18.9,0,0,1,1.793,3.778,3.716,3.716,0,0,1,2.383,2.984,66.353,66.353,0,0,1,.4,8.352c0,1.389-.4,2.977.6,4.77s3.977,2.184,3.977,2.184-.992-.4-1.191-3.381-.795-8.147-.6-9.542.4-3.773.4-3.773a19.71,19.71,0,0,0,.6,5.962c.793,2.383,1.191,6.757,2.183,8.948S209.549,134.938,209.35,135.336Zm-32.8,1.594,6.161-1.793.565-6.184,4.356.565s1.559-3.147.752-4.718c-.909-1.781-2.683-2.34-4.969-2.178-4.314.313-7.8,3.857-7.8,6.24S175.157,134.938,176.548,136.93Zm-.795,2.184,8.55-2.387.534-6.1,3.96,1.456.92-4.074-.307-3.315s2.5,3.845,2.3,5.83-1.251,3.418-.259,4.416,3.581,4.008,3.581,4.008l-1.391,3.946-4.513-1.083a15.157,15.157,0,0,0-4.037-.907C183.5,140.9,178.136,142.7,175.753,139.114Zm7.954,4.176a10.6,10.6,0,0,1,4.971.59,28.519,28.519,0,0,0,7.551,1l-.2-3.184.6-1.985-2.979-5.168h2.78l-3.58-4.573v-1.787s.2-.2,3.58,1.985,5.366-.2,7.159,1.992a48.651,48.651,0,0,0,6.757,6.161,9.718,9.718,0,0,1,2.78,4.374,9.994,9.994,0,0,0-.2,4.176c.4,2.183-.6,2.779-.6,2.779s-5.764-6.559-6.161-5.168,4.573,7.358,4.573,7.358l1.389,2.582s.2,1.389-.992,1.389-6.757-5.962-7.954-6.757a19.847,19.847,0,0,0-4.17-1.588l-3.581.6s4.374.992,5.567,1.979,2.184,1.992,2.184,1.992l-5.964,1.793-3.375,2.582-1.2-2.383-2.184-1.191.2-2.19-3.977-1.985.793-1.391Zm43.621-14.579s3.768,3.592,4.308,5.734a13.074,13.074,0,0,1,.536,5.037,10.114,10.114,0,0,1-.9,3.05,8.374,8.374,0,0,0-1.077,2.689c-.182,1.258-.536,3.232-.536,3.232s1.257-.542,1.077.536-1.619,1.077-1.077,2.689,1.793,3.946,1.793,1.979.36-4.128,0-5.567a6.76,6.76,0,0,1-.18-2.514s2.515,3.766,3.05,1.979-2.327-3.051-1.793-4.128,1.439-4.128,3.051-5.024a7.1,7.1,0,0,0,2.509-2.7s1.979,4.308,1.617,6.283a26.7,26.7,0,0,1-1.973,5.2l3.586-1.257a29.213,29.213,0,0,1-1.431,4.128c-.542.9-3.051,3.766-3.051,3.766l2.329-.716L239,156.7s-5.386-1.251-7.179,0-2.87,1.979-2.87,1.979-1.8-7.9-1.979-6.462a14.964,14.964,0,0,0-.174,2.87v5.567l-1.8,2.147-1.432-4.482-2.335.536a24.255,24.255,0,0,0-1.793-4.664c-.9-1.437-2.87-3.23-3.23-4.126a5.824,5.824,0,0,0-1.432-1.793s-1.257-8.616,2.149-9.869,4.849,2.149,4.849,3.406-2.335,6.1-2.335,6.1l3.768-3.05a5.83,5.83,0,0,1,.36,3.05c-.36,1.258-1.439,5.2-1.439,5.2a1.193,1.193,0,0,0,1.794-.9,17.162,17.162,0,0,1,1.077-4.128c.541-.9,1.257-1.973,1.257-1.973a14.931,14.931,0,0,1-1.432-2.689,18.975,18.975,0,0,0-.9-2.153s-1.072-5.385.18-8.074A15.665,15.665,0,0,1,227.328,128.711Zm-3.05,38.4s6.1,5.024,6.462,3.948,4.3-6.637,4.3-6.637l4.669,2.509,3.238-4.049s-4.946-6.161-9.608-4.909S224.279,167.111,224.279,167.111Zm-.716,2.335s5.921,3.766,7,3.766,5.024-6.455,5.024-6.455l4.308,2.327,4.482-5.565s-.18,7.54-3.051,11.666a22.2,22.2,0,0,1-6.281,6.1l-2.147,1.077.715-6.816s-1.257,0-1.437,1.077-1.077,4.662-1.077,4.662a40.973,40.973,0,0,1-4.482-3.946C225.175,175.721,222.846,171.779,223.562,169.446Zm-31.582-3.592,8.171-.109s2.569-6.244,3.466-6.244,4.94.878,4.94.878l2.087-3.315s-6.118-3.768-9.892-2.689S194.67,157.96,191.98,165.854Zm-.36,1.619,9.331.18,3.478-5.921,4.778.536,2.515-5.567a3.158,3.158,0,0,1,2.508,3.412c0,3.051-.715,4.844-1.973,5.741s-4.843,3.772-5.2,5.2a47.584,47.584,0,0,1-1.973,5.023l-.36,3.051-1.432-.174a51.869,51.869,0,0,0,.536,6.455,36.179,36.179,0,0,0,2.7,4.482l-2.871,1.439a9.086,9.086,0,0,0-.541,2.7,15.818,15.818,0,0,0,.18,2.327l-2.515.356-3.05,1.077s-2.329-5.915-2.689-7.534-2.689-4.482-2.689-4.482,1.973.716,3.4,1.078a7.112,7.112,0,0,1,2.871,1.967,16.286,16.286,0,0,1-2.149-3.586c-.36-1.252-3.23-4.128-3.23-4.128a21.678,21.678,0,0,1,3.586,1.257,4.838,4.838,0,0,1,1.793,1.252l-1.432-3.586-1.439-3.766,2.515,1.077s1.613-2.335.356-3.232S191.084,171.779,191.62,167.473ZM211.565,149.8s4.134,2.226,5.728,4.236a22.848,22.848,0,0,1,2.756,5.091,16.423,16.423,0,0,1,.95,2.965l1.907-2.327a31.519,31.519,0,0,1,.536,3.922c0,1.161-1.486,4.453-1.486,5.4a27.82,27.82,0,0,0,.95,5.192c.451,1.553,4.056,6.432,5.2,6.788s2.227.847,2.118,1.7-4.451,5.621-5.089,6.246c-.633.644-3.07,3.3-3.07,3.3a9.112,9.112,0,0,1,.314-3.395,29.665,29.665,0,0,0,.745-4.139,11.282,11.282,0,0,0-.108-2.221l-1.7.952a28.879,28.879,0,0,1,.319-6.252,6.708,6.708,0,0,0,.211-3.182l-1.7.638s-1.907-4.772-3.285-5.728a10.726,10.726,0,0,0-2.857-1.372h-2.124a10.747,10.747,0,0,0,3.6-5.089c.957-3.184.53-3.712-.211-5.192S211.565,149.8,211.565,149.8Zm-.849,31.479c0-.528-4.981-2.646-5.085-3.393s3.076-8.159,6.36-8.8,6.15,4.128,6.469,5.084.528,1.493.528,1.493-3.29,5.824-2.545,5.824,3.393-4.134,3.393-4.134.843,3.6.53,4.88-2.756,4.345-2.756,4.345-.956,2.226-.109,2.015,2.118-1.805,2.757-2.334,2.015-1.8,2.015-1.8-1.377,6.041-3.814,9.223a35.27,35.27,0,0,0-3.821,6.252,18.453,18.453,0,0,1-2.756,3.284s-.638.639-1.058,0-2.546-3.82-2.967-4.776-2.124-2-2.546-3.171a18.17,18.17,0,0,1-.638-3.393,13.692,13.692,0,0,1,3.5,0,19.707,19.707,0,0,0,3.285.108l.528-.745s-4.561-3.081-5.192-4.133a30.193,30.193,0,0,1-2.015-5.933v-.644S208.491,181.708,210.716,181.28Zm19.374,4.351s6.811-3.707,9.681-5.735,6.931-7.172,6.931-7.172-.835,4.776-1.2,5.613-2.863,2.275-2.863,2.275l3.82-.957a16.171,16.171,0,0,1-2.389,5.138c-1.551,1.907-3.1,3.946-3.706,4.9s-3.586,4.422-3.586,4.422,3.706-2.87,5.259-3.946,4.9-5.734,4.9-5.734-1.077,5.621-1.793,6.457-3.225,3.7-3.225,3.7l2.269-.476a14.663,14.663,0,0,1-1.078,2.629c-.474.722-2.387,2.991-2.387,2.991l2.87-1.432a4.946,4.946,0,0,1-1.2,2.629c-.958.836-2.631,2.029-2.631,2.029h3.105s-2.389,2.514-2.984,3.35-4.422,2.985-4.422,2.985a17.939,17.939,0,0,0-2.871.716c-1.311.481-4.542,2.273-4.542,2.273l.24-3.466s2.871-3.586,3.466-4.3,1.673-2.039.716-1.557-3.94,2.273-3.94,2.273l.234-2.389s2.749-1.793,3.586-2.153a9.927,9.927,0,0,0,2.275-2.269s.474-1.077-2.155.356a23.426,23.426,0,0,1-4.3,1.913l.482-2.515s3.82-2.269,4.422-2.743a6.764,6.764,0,0,0,1.191-2.155l-3.586,1.078a30.376,30.376,0,0,1,1.2-2.871c.356-.595,1.553-3.586,1.553-3.586l-3.345,1.077Zm-15.944,24.722s7.648-7.256,8.033-6.389a51.476,51.476,0,0,1,.969,6.2.948.948,0,0,1,1.359.578c.385,1.066-.1,4.747-.1,4.747h1.841s-.288,7.161.681,7.161,6.679-4.548,7.544-3.195-.1,5.42.776,5.517,4.068-1.938,4.741-2.708.873-5.229-.385-7.654-2.714-3.869-4.838-3.573-6.582,3.483-6.582,3.483l-1.064-1.841s-.391-3.58-.1-4.163a19.121,19.121,0,0,1,2.033-2.323l-1.648-.963.488-3.1,1.642-.584-2.033-.482-.193-3.393,3.675-6.577-3.195,1.451,1.263-4.646s-3.971,3.58-5.42,4.548-2.714.873-3.484,1.553a53.37,53.37,0,0,0-4.548,6c-.487.872-2.617,3.675-2.617,3.675A5.309,5.309,0,0,1,214.339,206,24.425,24.425,0,0,1,214.147,210.353Zm-27,20.614a10.936,10.936,0,0,1,2.876-.818c1.365-.139,2.592-.139,2.592-.139a9.753,9.753,0,0,1-1.774-3.687c-.277-1.782-.41-7.113-.41-7.113s1.5,3.828,2.184,6.018a19.474,19.474,0,0,0,1.913,4.1s5.47,1.1,7.252,3.687a12,12,0,0,1,2.052,4.507,61.35,61.35,0,0,0,5.192-4.639c.685-.963,5.607-5.884,5.607-5.884s3.279-1.637,4.513-2.046,3.557-2.739,3.557-2.739l.679-3.278s-6.287,3.008-5.6,1.913,4.1-3.557,4.1-3.557l1.5-1.774.414-3.7h-2.052l-.414-5.331s-4.236,3.557-5.192,4.1-3.7,1.781-3.7,1.781,2.329,3.826,2.329,5.325a9,9,0,0,1-1.913,4.927c-1.234,1.781-3.147,4.236-3.7,4.921a37.627,37.627,0,0,1-3.416,2.877s3.008-5.885,3.965-6.7a19.974,19.974,0,0,0,2.19-2.461l-1.372.139a6.192,6.192,0,0,0,2.19-3.832c.139-2.19-.547-3.418-1.234-3.418a18.175,18.175,0,0,0-4.512,1.913,36.611,36.611,0,0,1-4.236,1.782v2.87A35.432,35.432,0,0,1,201.5,227s0-4.784-.132-5.47-.957-3.687-.957-3.687l-1.1-1.234s-3.008.139-3.7-.271-3.555-5.745-4.236-7.383-1.365-9.025-1.365-9.025-2.739,4.65-2.739,6.155.548,6.01.548,6.01a14.426,14.426,0,0,1-2.052-1.774c-.548-.685-1.366-1.913-1.366-1.913a29.474,29.474,0,0,0,.271,4.373c.277.958,1.234,4.513,1.234,4.513l-2.871-2.737s-.276,3.555.41,4.789,1.228,3.965,1.913,6.426.957,2.184,1.1,3.008A13.868,13.868,0,0,0,187.144,230.966Zm11.076-22.148c1.234-.957,4.513-5.192,5.331-5.192s2.329-.414,1.5.957a48.527,48.527,0,0,1-3.687,4.507c-.685.824-1.643.963-1.781,1.642s1.1,2.732,1.371,3.966-1.234,1.781,1.089,1.5,3.966-2.323,5.337-2.6,4.646-3.965,5.054-4.923.826-2.052.139-2.87a7.829,7.829,0,0,0-2.731-1.5s-2.461-6.15-6.7-6.287-6.149,2.46-7.383,3.555-4.783,4.513-3.694,5.6S198.22,208.819,198.22,208.819Zm-3.826,1.776a35.917,35.917,0,0,1,3.826,0l1.366,4.927S194.394,214.017,194.394,210.595Zm30.3,9.633c0,2.046.116,4.542,1.366,4.656s6.931-2.96,6.931-2.96-.451,5.235,1.366,5.235,6.824-2.275,6.824-2.275-3.755,6.366-6.6,7.389-10.234,3.182-10.234,3.182l-4.32,1.71,2.389.228a12.349,12.349,0,0,1-3.863,3.3,22.841,22.841,0,0,1-5.457,1.816s2.159.909,2.046,1.59-1.48,1.936-2.389,2.5-2.611,2.159-.793,2.273,6.48-5,8.869-6.823,2.159-4.433,5.571-5.228,7.84-3.182,9.434-3.977l3.634-1.818s-4.205,4.766-5.451,5.457-3.869,1.7-3.869,1.7l3.641.565a19.769,19.769,0,0,1-3.755,2.96,6.183,6.183,0,0,0-2.273,1.816h4.2a16.77,16.77,0,0,1-2.84,1.366,31.36,31.36,0,0,0-3.182,1.252l3.182.565a18.98,18.98,0,0,1-3.64,2.617,48.881,48.881,0,0,1-9.735,2.124c-2.913.211-3.772.108-5.716.211s-4.633.325-4.633.325-.65-2.588-2.269-2.588-3.664.217-3.664.217a74.224,74.224,0,0,1,3.882-7.01,14.061,14.061,0,0,0,2.052-5.078s1.938.758,2.153,1.625.434,2.484.969,2.159.867-2.913.867-4.639,2.911-5.824,2.911-5.824.861,3.238,1.728,3.453,1.184-.758,1.184-.758,0-3.447.861-4.958,4.747-3.345,5.174-3.989S224.693,220.228,224.693,220.228Zm-39,14.091s.271,7.726,1.083,7.726,6.5-1.764,7.859-.813.541,6.637.541,6.637l3.526-.813s4.471-4.741,3.526-8.536-3.934-6.776-7.051-7.179-7.045.764-7.718,1.445S185.693,234.318,185.693,234.318Zm-24.8,25.2s6.637-2.443,12.738-.271,7.045,4.6,7.859,5.825,2.706,3.248,3.8,3.526,8.941-.41,13.55-2.035,5.687-1.083,5.687-1.083l-2.846-1.491,4.88-.681-.812-2.437,5.42-1.089-3.116-2.027a39.068,39.068,0,0,1,5.691-2.167,55.848,55.848,0,0,0,7.045-2.851s-8.267.41-10.571.41a10.848,10.848,0,0,0-5.012.95c-.95.541-2.979,2.437-4.068,2.437s-1.895-.271-1.083-1.083,3.118-4.068,3.118-4.068-4.88.818-5.962,1.764-6.366,2.977-7.316,4.337-3.791,2.708-3.791,3.929.132,3.249-1.089,2.977a3.251,3.251,0,0,1-2.569-2.166c-.41-1.221-1.493-2.575-.542-2.846s4.873.139,4.873-1.083a1.752,1.752,0,0,0-.812-1.623,17.661,17.661,0,0,1,4.337-1.9,29.553,29.553,0,0,0,4.873-1.9,19.62,19.62,0,0,0-5.824-.675c-3.116.132-3.929,1.083-4.47.132s-2.035-2.708-3.929-2.708-3.658.132-3.658.132,3.929-4.2,5.691-2.977,2.3,3.52,5.145,3.658,4.747.4,5.691.4a31.965,31.965,0,0,0,3.929-.673l-.271-1.221-4.741.048s1.445-5.872.362-6.143-7.678.992-7.678.992l-1.623-7.5,1.762-5.012-1.9-4.211s-1.354-1.751-1.354-2.7.41-6.774.41-8.809a18,18,0,0,1,.541-4.06s-3.387,5.012-4.47,6.9-2.3,2.99-2.575,4.886-.95,4.2.673,5.553,2.985,1.89,2.985,3.118-1.221,6.774-1.221,6.774,0-3.928-.41-4.609-2.3-.4-2.708-1.625a27.794,27.794,0,0,1-.4-6.095v-5.565l-.681-1.751s-1.491,3.389-2.033,5.012-.542,2.035-1.221,2.708-1.895-.4-2.166.95-1.9,4.2.271,5.825,4.609.812,4.337,1.9a43.025,43.025,0,0,1-1.625,5.012c-.547,1.215-1.762,4.47-2.3,5.42a12.431,12.431,0,0,1-2.714,2.437s2.443-5.149,2.985-6.095a36.433,36.433,0,0,0,1.486-5.149s-1.354.541-2.029-.139-2.443-4.471-2.172-6.095a25.861,25.861,0,0,1,2.443-6.366,17.88,17.88,0,0,0,1.354-4.476s-3.8,3.658-4.609,5.962-2.166,5.962-2.166,6.774-2.437,0-2.3-2.3l.137-2.3s-1.491,3.791-1.491,5.012a39.084,39.084,0,0,1-.681,4.6,7.8,7.8,0,0,1-1.215-1.895c-.679-1.354-2.033-3.658-2.033-3.658s-.271,5.282-.271,6.5a33.139,33.139,0,0,1-1.762,7.587c-.813,2.033-5.825,8.134-5.825,8.134a80.552,80.552,0,0,0,9.621-.408,34.18,34.18,0,0,0,8.941-2.167S163.744,258.168,160.9,259.522Zm-8.23,5.439s4.116.151,6.023,1.523,2.816,3.429,6.4,5.559a30.907,30.907,0,0,0,6.631,3.128,5.569,5.569,0,0,0,1.443.23s-3.2-2.064-3.35-2.743-.766-2.366-.766-2.366,2.594,2.594,3.737,3.43a13.325,13.325,0,0,0,3.352,1.449l.915-.234a27.182,27.182,0,0,0-2.364-2.209,3.982,3.982,0,0,1-1.215-2.286,38.029,38.029,0,0,1,4.344,2.973,5.736,5.736,0,0,0,3.122,1.522,15.557,15.557,0,0,1,1.83.157,25.124,25.124,0,0,0-2.287-2.143c-.913-.679-4.193-3.952-4.193-3.952s4.344,4.187,6.859,5.029a14.041,14.041,0,0,0,4.8.687l2.973.071s-4.194-2.286-5.567-2.894-4.186-2.437-4.723-3.278-1.372-2.817-1.979-3.273a16.053,16.053,0,0,0-3.352-1.066,4.351,4.351,0,0,1,2.209-.228c1.064.228,2.286.607,2.286.607a59.786,59.786,0,0,0-5.716-4.193c-.992-.379-6.931-1.523-8.989-1.144a85.627,85.627,0,0,0-10.289,3.2A23.061,23.061,0,0,0,152.667,264.961Zm0,0" transform="translate(79.231 38.48)"/>
      <path id="Path_139" data-name="Path 139" class="cls-2" d="M178.8,177.62c-.2.048-.511.1-.938.151a2.913,2.913,0,0,0-.843.193.628.628,0,0,0-.337.505.734.734,0,0,0,.186.565.866.866,0,0,0,.578.283,1.309,1.309,0,0,0,.8-.2.923.923,0,0,0,.4-.47,2.946,2.946,0,0,0,.126-.729Zm-1.576-1.462-1.343-.368a2.072,2.072,0,0,1,.9-1.149,2.82,2.82,0,0,1,1.7-.253,3.543,3.543,0,0,1,1.48.373,1.543,1.543,0,0,1,.644.662,3.225,3.225,0,0,1,.085,1.36l-.176,1.764a6.58,6.58,0,0,0-.023,1.112,3.155,3.155,0,0,0,.2.776l-1.485-.12c-.031-.1-.066-.265-.109-.457-.017-.091-.029-.151-.035-.186a2.833,2.833,0,0,1-.873.493,2.433,2.433,0,0,1-.957.109,1.933,1.933,0,0,1-1.342-.608,1.557,1.557,0,0,1-.4-1.24,1.648,1.648,0,0,1,.307-.841,1.47,1.47,0,0,1,.7-.524,5.159,5.159,0,0,1,1.228-.242,8.1,8.1,0,0,0,1.493-.246l.011-.149a.764.764,0,0,0-.156-.638,1.333,1.333,0,0,0-.795-.254,1.14,1.14,0,0,0-.638.1A1.1,1.1,0,0,0,177.225,176.158Zm-12.305-1.306,1.385-.114.072.776a2.209,2.209,0,0,1,1.69-1.066,1.947,1.947,0,0,1,.969.145,1.765,1.765,0,0,1,.722.619,2.542,2.542,0,0,1,.746-.745,1.943,1.943,0,0,1,.909-.307,2.085,2.085,0,0,1,1.083.162,1.561,1.561,0,0,1,.71.687,3.18,3.18,0,0,1,.259,1.166l.319,3.641-1.5.126-.283-3.25a2.445,2.445,0,0,0-.253-1.077.7.7,0,0,0-.668-.265.955.955,0,0,0-.584.242,1.074,1.074,0,0,0-.348.6,4.257,4.257,0,0,0-.025,1.186l.242,2.731-1.5.132-.271-3.116a4.334,4.334,0,0,0-.174-1.066.7.7,0,0,0-.283-.337.764.764,0,0,0-.468-.077,1.1,1.1,0,0,0-.608.246,1.029,1.029,0,0,0-.354.571,4.023,4.023,0,0,0-.019,1.184l.24,2.762-1.5.132Zm-4.176,4.994c-.156.132-.408.319-.764.561a2.8,2.8,0,0,0-.667.541.669.669,0,0,0-.072.615.714.714,0,0,0,.427.414.8.8,0,0,0,.644-.006,1.3,1.3,0,0,0,.619-.541.968.968,0,0,0,.151-.608,3.334,3.334,0,0,0-.222-.7Zm-2.069-.578-1.366.283a2.129,2.129,0,0,1,.282-1.432,2.858,2.858,0,0,1,1.4-1,3.634,3.634,0,0,1,1.491-.343,1.537,1.537,0,0,1,.873.3,3.2,3.2,0,0,1,.692,1.174l.644,1.648a5.589,5.589,0,0,0,.487,1,3.083,3.083,0,0,0,.536.607l-1.383.567c-.079-.091-.182-.2-.308-.362a1.646,1.646,0,0,0-.114-.145,2.782,2.782,0,0,1-.553.832,2.4,2.4,0,0,1-.807.528,1.98,1.98,0,0,1-1.462.079,1.572,1.572,0,0,1-.926-.932,1.638,1.638,0,0,1-.109-.892,1.512,1.512,0,0,1,.379-.775,5.057,5.057,0,0,1,.987-.776,8.632,8.632,0,0,0,1.221-.9l-.06-.139a.758.758,0,0,0-.433-.494,1.273,1.273,0,0,0-.819.126,1.05,1.05,0,0,0-.522.385A1.1,1.1,0,0,0,158.675,179.268Zm-3.617-.228.47,1.107-.952.4.9,2.118a6.955,6.955,0,0,0,.343.741.3.3,0,0,0,.2.114.365.365,0,0,0,.265-.025,2.087,2.087,0,0,0,.505-.373l.571,1.029a3.025,3.025,0,0,1-1.01.675,1.827,1.827,0,0,1-.729.162,1.058,1.058,0,0,1-.584-.139,1.439,1.439,0,0,1-.427-.457,7.859,7.859,0,0,1-.457-.963l-.975-2.292-.638.265-.47-1.1.639-.271-.447-1.046,1.054-1.4.789,1.859Zm-4.7,2.207.488,1.1-.94.422.933,2.093a6.117,6.117,0,0,0,.36.741.338.338,0,0,0,.2.12.417.417,0,0,0,.265-.037,2.2,2.2,0,0,0,.5-.379l.59,1.017a3.024,3.024,0,0,1-1,.693,1.917,1.917,0,0,1-.727.168,1.04,1.04,0,0,1-.584-.12,1.461,1.461,0,0,1-.433-.464,6.35,6.35,0,0,1-.476-.944l-1.01-2.275-.638.283-.488-1.107.632-.277-.462-1.035,1.029-1.419.818,1.841Zm-6.884,6.174a1.9,1.9,0,0,0,.88,1.035,1.3,1.3,0,0,0,1.1.031,1.275,1.275,0,0,0,.733-.807,2.294,2.294,0,0,0-1.017-2.394,1.3,1.3,0,0,0-1.089-.031,1.313,1.313,0,0,0-.739.806A1.92,1.92,0,0,0,143.475,187.421Zm-1.456.524a3.047,3.047,0,0,1-.228-1.48,2.574,2.574,0,0,1,.547-1.408,3.149,3.149,0,0,1,1.252-.926,2.858,2.858,0,0,1,2.286-.055,2.912,2.912,0,0,1,1.594,1.631,2.951,2.951,0,0,1,.072,2.3,2.818,2.818,0,0,1-1.607,1.6,3.181,3.181,0,0,1-1.516.259,2.373,2.373,0,0,1-1.408-.53A3.5,3.5,0,0,1,142.02,187.944ZM137.14,193l-2.7-7.412,1.42-.524L137.291,189l.975-2.5,1.75-.638L138.9,188.5l3.2,2.691-1.528.559-2.227-1.919-.408.932.625,1.72Zm-6.246-.776a8.648,8.648,0,0,1-.847.422,2.737,2.737,0,0,0-.753.427.642.642,0,0,0-.18.578.773.773,0,0,0,.35.494.8.8,0,0,0,.638.089,1.265,1.265,0,0,0,.7-.414.942.942,0,0,0,.246-.567,2.747,2.747,0,0,0-.091-.733Zm-2.232-.775-1.389.042a2.126,2.126,0,0,1,.524-1.366,2.915,2.915,0,0,1,1.557-.739,3.824,3.824,0,0,1,1.523-.085,1.561,1.561,0,0,1,.806.457,3.112,3.112,0,0,1,.476,1.275l.354,1.727a5.865,5.865,0,0,0,.3,1.077,3.119,3.119,0,0,0,.427.693l-1.462.313c-.06-.091-.139-.223-.236-.4a1.5,1.5,0,0,0-.089-.163,2.957,2.957,0,0,1-.692.722,2.543,2.543,0,0,1-.886.379,1.955,1.955,0,0,1-1.456-.18,1.6,1.6,0,0,1-.752-1.083,1.617,1.617,0,0,1,.048-.884,1.511,1.511,0,0,1,.511-.7,5.7,5.7,0,0,1,1.107-.6,8.31,8.31,0,0,0,1.354-.662l-.031-.143a.785.785,0,0,0-.337-.567,1.222,1.222,0,0,0-.836-.011,1.055,1.055,0,0,0-.584.288A1.126,1.126,0,0,0,128.662,191.447Zm-9.018,3.675-1.023-5.884,1.36.18.565,3.845,1.342-3.6,1.354.18.457,3.828,1.443-3.58,1.379.174-2.354,5.451-1.348-.174-.493-3.768-1.318,3.526Zm-4.109-3.2,1.348.735a2.476,2.476,0,0,1-1.282.9,2.684,2.684,0,0,1-1.625-.1,2.544,2.544,0,0,1-1.763-1.642,3.248,3.248,0,0,1,.1-2.039,3.147,3.147,0,0,1,1.426-1.859,2.461,2.461,0,0,1,2.04-.157,2.565,2.565,0,0,1,1.625,1.456,3.738,3.738,0,0,1-.176,2.672l-3.579-1.24a1.566,1.566,0,0,0,.006,1.114,1.13,1.13,0,0,0,.7.632.933.933,0,0,0,.626.019A1.167,1.167,0,0,0,115.534,191.921Zm.584-1.408a1.471,1.471,0,0,0,.006-1.054,1.037,1.037,0,0,0-.633-.578,1.051,1.051,0,0,0-.89.072,1.386,1.386,0,0,0-.62.824Zm-9.97-2.178,1.474.41a1.105,1.105,0,0,0,.09.77,1.294,1.294,0,0,0,.662.547,1.53,1.53,0,0,0,.891.163.474.474,0,0,0,.349-.29.389.389,0,0,0,.018-.307,1.253,1.253,0,0,0-.379-.385,8.241,8.241,0,0,1-1.823-1.613,1.484,1.484,0,0,1-.1-1.449,1.591,1.591,0,0,1,1.047-.9,2.738,2.738,0,0,1,1.865.276,3.237,3.237,0,0,1,1.438,1.054,1.961,1.961,0,0,1,.253,1.348l-1.408-.331a.857.857,0,0,0-.108-.607,1.237,1.237,0,0,0-.6-.457,1.634,1.634,0,0,0-.848-.2.361.361,0,0,0-.277.209.327.327,0,0,0,.024.314,5.7,5.7,0,0,0,1.113.963,4.153,4.153,0,0,1,1.27,1.3,1.392,1.392,0,0,1-.024,1.215,1.718,1.718,0,0,1-1.149.969,2.883,2.883,0,0,1-2-.27,3.179,3.179,0,0,1-1.492-1.192A2.131,2.131,0,0,1,106.148,188.335Zm-5.289-5.59-1.095-.861a2.15,2.15,0,0,1,1.276-.709,2.938,2.938,0,0,1,1.673.439,3.5,3.5,0,0,1,1.215.92,1.5,1.5,0,0,1,.331.861,3.143,3.143,0,0,1-.457,1.282l-.842,1.559a6,6,0,0,0-.457,1.01,3.2,3.2,0,0,0-.12.806l-1.324-.7c.018-.108.042-.259.084-.462.024-.1.03-.151.036-.182a2.927,2.927,0,0,1-1,.116,2.465,2.465,0,0,1-.914-.277,1.951,1.951,0,0,1-1-1.077,1.586,1.586,0,0,1,.12-1.306,1.644,1.644,0,0,1,.608-.656,1.539,1.539,0,0,1,.848-.2,5.048,5.048,0,0,1,1.221.254,8.316,8.316,0,0,0,1.474.354l.066-.126a.768.768,0,0,0,.1-.65c-.066-.186-.277-.36-.626-.547a1.133,1.133,0,0,0-.632-.157A1.1,1.1,0,0,0,100.859,182.746Zm1.209,2.033a8.026,8.026,0,0,1-.921-.228,2.831,2.831,0,0,0-.848-.151.625.625,0,0,0-.512.331.733.733,0,0,0-.048.6.811.811,0,0,0,.421.487,1.307,1.307,0,0,0,.812.126.932.932,0,0,0,.553-.27,3.212,3.212,0,0,0,.4-.627Zm-7.551-6.762-.548,1.071-.921-.47L92,180.669a6.518,6.518,0,0,0-.343.735.32.32,0,0,0,.036.234.411.411,0,0,0,.193.186,2.106,2.106,0,0,0,.608.145l-.415,1.1a2.829,2.829,0,0,1-1.167-.337,1.88,1.88,0,0,1-.6-.451,1.112,1.112,0,0,1-.265-.534,1.315,1.315,0,0,1,.078-.621,6.2,6.2,0,0,1,.439-.973l1.131-2.215-.62-.319.548-1.071.614.313.517-1.01,1.751-.1-.914,1.8Zm-10.933.5,1.516.223a1.127,1.127,0,0,0,.181.758,1.343,1.343,0,0,0,.722.462,1.462,1.462,0,0,0,.909.049.474.474,0,0,0,.307-.331.372.372,0,0,0-.018-.3,1.133,1.133,0,0,0-.427-.337,8.026,8.026,0,0,1-2-1.385,1.459,1.459,0,0,1-.271-1.425,1.58,1.58,0,0,1,.92-1.023,2.794,2.794,0,0,1,1.889.042,3.217,3.217,0,0,1,1.552.884,1.961,1.961,0,0,1,.421,1.306l-1.438-.163a.87.87,0,0,0-.187-.59,1.22,1.22,0,0,0-.644-.385,1.773,1.773,0,0,0-.866-.1.379.379,0,0,0-.253.253.314.314,0,0,0,.066.3,5.726,5.726,0,0,0,1.221.826,4.258,4.258,0,0,1,1.42,1.124,1.429,1.429,0,0,1,.12,1.221,1.708,1.708,0,0,1-1.023,1.1A2.878,2.878,0,0,1,85.685,181a3.251,3.251,0,0,1-1.625-.992A2.183,2.183,0,0,1,83.585,178.516ZM78.7,175.785l-1.354-.325a2.18,2.18,0,0,1,.854-1.186,2.986,2.986,0,0,1,1.7-.307,3.771,3.771,0,0,1,1.492.313,1.583,1.583,0,0,1,.668.65,3.118,3.118,0,0,1,.126,1.366l-.108,1.756a6.253,6.253,0,0,0,.018,1.114,3.389,3.389,0,0,0,.229.776l-1.492-.085a3.182,3.182,0,0,1-.12-.451,1.15,1.15,0,0,0-.048-.174,2.763,2.763,0,0,1-.854.524,2.533,2.533,0,0,1-.951.139,1.992,1.992,0,0,1-1.36-.555,1.582,1.582,0,0,1-.445-1.234,1.612,1.612,0,0,1,.277-.847,1.5,1.5,0,0,1,.674-.548,4.742,4.742,0,0,1,1.221-.288,8.1,8.1,0,0,0,1.486-.3l.006-.149a.816.816,0,0,0-.181-.633,1.305,1.305,0,0,0-.8-.228.9.9,0,0,0-1.035.668Zm1.956,1.329c-.2.048-.506.114-.933.174a2.689,2.689,0,0,0-.83.223.636.636,0,0,0-.325.518.738.738,0,0,0,.211.559.811.811,0,0,0,.584.265,1.289,1.289,0,0,0,.794-.229.9.9,0,0,0,.385-.487,2.766,2.766,0,0,0,.1-.729Zm-5.872,3.441-1.456.416-1.576-5.488L73.1,175.1l.223.776a2.4,2.4,0,0,1,.415-.9,1.2,1.2,0,0,1,.578-.36,1.875,1.875,0,0,1,1.035,0l-.084,1.4a1.366,1.366,0,0,0-.752-.042.8.8,0,0,0-.469.319,1.163,1.163,0,0,0-.156.7,8.635,8.635,0,0,0,.409,1.878Zm20.457,3.658-1.354-.667,2.527-5.121,1.257.621-.361.727a2.488,2.488,0,0,1,.92-.391,1.208,1.208,0,0,1,.668.128,1.918,1.918,0,0,1,.764.7l-1,.969a1.417,1.417,0,0,0-.524-.542.88.88,0,0,0-.56-.072,1.133,1.133,0,0,0-.59.41,8.636,8.636,0,0,0-.963,1.66Zm0,0" transform="translate(38.766 94.023)"/>
    </g>
    <!-- <path id="Path_140" data-name="Path 140" class="cls-11" d="M524.245,291.863A85.669,85.669,0,0,1,517.12,306c0,.035-.043.074-.07.109a13.33,13.33,0,0,1-11.289,6.079l-147.3,23.967L225.126,312.184H102.753c-29.418,0-47.85-30.369-33.1-54.629C96.2,213.917,121.277,153.344,90.93,111.6c-48.732-67.125,3.756-79.3,38.38-80.7a96.187,96.187,0,0,1,39.019,6.587A337.178,337.178,0,0,0,251.65,57.8c1.251.148,2.51.287,3.786.434a353.268,353.268,0,0,0,60.695,1.133h0c.595-.03,1.19-.078,1.8-.122a349.98,349.98,0,0,0,59.37-9.518c1.264-.317,2.51-.617,3.747-.916,64.976-15.528,124.871,37.382,109.9,97.156-5.536,22.119-4.129,45.692,14.329,64.759C535.47,241.894,531.809,272.549,524.245,291.863Z" transform="translate(151.54 227.485)"/> -->
  </g>
</svg>
