<svg xmlns="http://www.w3.org/2000/svg" xmlns:xlink="http://www.w3.org/1999/xlink" viewBox="0 0 2109.141 2090.131">
  <defs>
    <style>
      .cls-1 {
        fill: #f2f2f2;
      }

      .cls-2 {
        fill: #bea6a6;
      }

      .cls-3 {
        opacity: 0.13;
      }

      .cls-4 {
        clip-path: url(#clip-path);
      }

      .cls-5 {
        clip-path: url(#clip-path-2);
      }

      .cls-6 {
        clip-path: url(#clip-path-3);
      }

      .cls-10, .cls-11, .cls-12, .cls-13, .cls-14, .cls-15, .cls-16, .cls-17, .cls-18, .cls-20, .cls-21, .cls-22, .cls-23, .cls-24, .cls-25, .cls-26, .cls-27, .cls-28, .cls-29, .cls-30, .cls-31, .cls-32, .cls-37, .cls-7, .cls-8, .cls-9 {
        fill: none;
      }

      .cls-7 {
        stroke: #a5d8ff;
      }

      .cls-12, .cls-13, .cls-14, .cls-15, .cls-16, .cls-17, .cls-18, .cls-20, .cls-21, .cls-22, .cls-23, .cls-26, .cls-28, .cls-29, .cls-30, .cls-31, .cls-32, .cls-37, .cls-7, .cls-8 {
        stroke-linecap: round;
        stroke-linejoin: round;
      }

      .cls-10, .cls-11, .cls-14, .cls-17, .cls-18, .cls-20, .cls-21, .cls-22, .cls-23, .cls-24, .cls-25, .cls-26, .cls-27, .cls-28, .cls-37, .cls-7, .cls-8, .cls-9 {
        stroke-miterlimit: 10;
      }

      .cls-29, .cls-30, .cls-31, .cls-32, .cls-7, .cls-8 {
        stroke-width: 11px;
      }

      .cls-21, .cls-8 {
        stroke: #95d1ff;
      }

      .cls-10, .cls-11, .cls-12, .cls-13, .cls-14, .cls-15, .cls-16, .cls-17, .cls-24, .cls-26, .cls-29, .cls-30, .cls-9 {
        stroke: #010101;
      }

      .cls-12, .cls-13, .cls-26, .cls-9 {
        stroke-width: 4px;
      }

      .cls-11 {
        stroke-width: 0.363px;
      }

      .cls-13, .cls-16 {
        stroke-dasharray: 13.545 13.545;
      }

      .cls-17, .cls-18, .cls-24, .cls-25 {
        stroke-width: 2px;
      }

      .cls-18, .cls-22, .cls-23, .cls-25, .cls-27, .cls-28, .cls-31, .cls-32 {
        stroke: #ff9895;
      }

      .cls-19 {
        clip-path: url(#clip-path-17);
      }

      .cls-20 {
        stroke: #94d0ff;
      }

      .cls-20, .cls-21 {
        stroke-width: 9px;
      }

      .cls-22 {
        stroke-width: 4.977px;
      }

      .cls-23 {
        stroke-width: 3.167px;
      }

      .cls-28, .cls-37 {
        stroke-width: 3px;
      }

      .cls-30, .cls-32 {
        stroke-dasharray: 0 29.07;
      }

      .cls-33 {
        clip-path: url(#clip-path-39);
      }

      .cls-34 {
        fill: #010101;
      }

      .cls-35 {
        fill: #ff9895;
      }

      .cls-36 {
        clip-path: url(#clip-path-43);
      }

      .cls-37 {
        stroke: #e8e8e8;
      }
    </style>
    <clipPath id="clip-path">
      <rect id="Rectangle_2" data-name="Rectangle 2" class="cls-1" width="1782.121" height="1188.081" transform="translate(0 0)"/>
    </clipPath>
    <clipPath id="clip-path-2">
      <rect id="Rectangle_3" data-name="Rectangle 3" class="cls-1" width="1782.121" height="1188.081" transform="translate(0)"/>
    </clipPath>
    <clipPath id="clip-path-3">
      <rect id="Rectangle_4" data-name="Rectangle 4" class="cls-1" width="1782.121" height="1188.081"/>
    </clipPath>
    <clipPath id="clip-path-17">
      <rect id="Rectangle_20" data-name="Rectangle 20" class="cls-2" width="1782.121" height="1188.081"/>
    </clipPath>
    <clipPath id="clip-path-39">
      <rect id="Rectangle_44" data-name="Rectangle 44" width="1782.121" height="1188.081"/>
    </clipPath>
    <clipPath id="clip-path-43">
      <rect id="Rectangle_48" data-name="Rectangle 48" class="cls-1" width="750" height="500"/>
    </clipPath>
  </defs>
  <g id="_3509900" data-name="3509900" class="cls-3" transform="translate(52.707 238.436)">
    <g id="OBJECTS" transform="translate(-52.707 -238.436)">
      <g id="Group_24" data-name="Group 24">
        <g id="Group_1" data-name="Group 1" class="cls-4" transform="translate(125.241 566.563)">
          <circle id="XMLID_2698_" class="cls-1" cx="97.423" cy="97.423" r="97.423" transform="translate(1321.146 359.585)"/>
        </g>
        <g id="Group_2" data-name="Group 2" class="cls-5" transform="translate(0 1231.268) rotate(-43.703)">
          <circle id="XMLID_2706_" class="cls-1" cx="34.359" cy="34.359" r="34.359" transform="translate(731.763 454.132)"/>
        </g>
        <g id="Group_3" data-name="Group 3" class="cls-6" transform="translate(125.241 566.563)">
          <path id="XMLID_1820_" class="cls-1" d="M203.808,278.345,192.4,284.88s-4.657-2.709-10.954-6.344a21.953,21.953,0,0,1,.048-37.995l.4-.238a21.962,21.962,0,0,1,21.956,0h0A21.941,21.941,0,0,1,203.808,278.345Z" transform="translate(234.665 326.649)"/>
        </g>
        <g id="Group_4" data-name="Group 4" class="cls-6" transform="translate(125.241 566.563)">
          <path id="XMLID_2699_" class="cls-1" d="M471.468,300.845l-11.406,6.534s-4.657-2.709-10.954-6.344a21.953,21.953,0,0,1,.048-37.995l.4-.238a21.962,21.962,0,0,1,21.956,0h0A21.923,21.923,0,0,1,471.468,300.845Z" transform="translate(603.008 357.613)"/>
        </g>
        <g id="Group_5" data-name="Group 5" class="cls-6" transform="translate(125.241 566.563)">
          <path id="XMLID_2700_" class="cls-1" d="M135.808,421.893l-8.079,4.634s-3.3-1.925-7.746-4.491a15.563,15.563,0,0,1,.024-26.922l.285-.166a15.52,15.52,0,0,1,15.54,0h0A15.53,15.53,0,0,1,135.808,421.893Z" transform="translate(154.464 540.642)"/>
        </g>
        <g id="Group_6" data-name="Group 6" class="cls-6" transform="translate(125.241 566.563)">
          <path id="XMLID_2701_" class="cls-1" d="M589.478,137.563,581.4,142.2s-3.3-1.925-7.746-4.491a15.563,15.563,0,0,1,.024-26.922l.285-.166a15.52,15.52,0,0,1,15.54,0h0A15.53,15.53,0,0,1,589.478,137.563Z" transform="translate(778.787 149.358)"/>
        </g>
        <g id="Group_7" data-name="Group 7" class="cls-4" transform="translate(125.241 566.563)">
          <circle id="XMLID_1819_" class="cls-7" cx="135.441" cy="135.441" r="135.441" transform="translate(-42.367 187.717)"/>
        </g>
        <g id="XMLID_1817_" class="cls-6" transform="translate(125.241 566.563)">
          <path id="XMLID_1816_" class="cls-8" d="M551.5,406.5c47.167,0,47.167,47.523,94.334,47.523S693,406.5,740.167,406.5s47.167,47.523,94.334,47.523S881.668,406.5,928.835,406.5s47.167,47.523,94.334,47.523" transform="translate(758.953 559.41)"/>
          <path id="XMLID_1818_" class="cls-8" d="M551.5,380.17c47.167,0,47.167,47.523,94.334,47.523S693,380.17,740.167,380.17s47.167,47.523,94.334,47.523,47.167-47.523,94.334-47.523,47.167,47.523,94.334,47.523" transform="translate(758.953 523.175)"/>
        </g>
        <g id="XMLID_1397_" class="cls-6" transform="translate(125.241 566.563)">
          <path id="XMLID_242_" class="cls-9" d="M164.872,334.245h0A122.38,122.38,0,0,1,42.5,211.872h0A122.38,122.38,0,0,1,164.872,89.5h0A122.38,122.38,0,0,1,287.245,211.872h0A122.38,122.38,0,0,1,164.872,334.245Z" transform="translate(58.487 123.166)"/>
          <path id="XMLID_1396_" class="cls-10" d="M148.358,289.217h0A93.844,93.844,0,0,1,54.5,195.358h0A93.844,93.844,0,0,1,148.358,101.5h0a93.844,93.844,0,0,1,93.858,93.858h0A93.844,93.844,0,0,1,148.358,289.217Z" transform="translate(75.001 139.68)"/>
          <path id="XMLID_1398_" class="cls-10" d="M130.468,240.437h0A62.955,62.955,0,0,1,67.5,177.468h0A62.955,62.955,0,0,1,130.468,114.5h0a62.955,62.955,0,0,1,62.968,62.968h0A62.955,62.955,0,0,1,130.468,240.437Z" transform="translate(92.891 157.57)"/>
        </g>
        <g id="XMLID_2672_" class="cls-6" transform="translate(125.241 566.563)">
          <path id="XMLID_2675_" class="cls-11" d="M616.023,425.056h0a44.366,44.366,0,0,1-44.363-44.363h0a44.366,44.366,0,0,1,44.363-44.363h0a44.366,44.366,0,0,1,44.363,44.363h0A44.366,44.366,0,0,1,616.023,425.056Z" transform="translate(786.697 462.844)"/>
          <path id="XMLID_2674_" class="cls-11" d="M610.037,408.733h0a34.023,34.023,0,0,1-34.027-34.027h0a34.023,34.023,0,0,1,34.027-34.027h0a34.023,34.023,0,0,1,34.027,34.027h0A34.023,34.023,0,0,1,610.037,408.733Z" transform="translate(792.683 468.831)"/>
          <path id="XMLID_2673_" class="cls-1" d="M603.555,391.06h0a22.842,22.842,0,0,1-22.835-22.835h0a22.842,22.842,0,0,1,22.835-22.835h0a22.842,22.842,0,0,1,22.835,22.835h0A22.842,22.842,0,0,1,603.555,391.06Z" transform="translate(799.165 475.313)"/>
        </g>
        <g id="XMLID_2719_" class="cls-6" transform="translate(125.241 566.563)">
          <g id="XMLID_2726_" transform="translate(1625.865 36.735)">
            <path id="XMLID_2737_" class="cls-1" d="M694.077,20.379a4.919,4.919,0,1,1-4.919-4.919A4.913,4.913,0,0,1,694.077,20.379Z" transform="translate(-684.24 -15.46)"/>
            <path id="XMLID_2736_" class="cls-1" d="M703.66,18.755a2.115,2.115,0,1,1-2.115-2.115A2.12,2.12,0,0,1,703.66,18.755Z" transform="translate(-663.336 -13.836)"/>
            <path id="XMLID_2735_" class="cls-1" d="M720.624,19.842a3.992,3.992,0,1,1-3.992-3.992A3.985,3.985,0,0,1,720.624,19.842Z" transform="translate(-645.157 -14.923)"/>
            <path id="XMLID_2734_" class="cls-1" d="M731.66,18.755a2.115,2.115,0,1,1-2.115-2.115A2.12,2.12,0,0,1,731.66,18.755Z" transform="translate(-624.804 -13.836)"/>
            <path id="XMLID_2733_" class="cls-1" d="M745.65,18.755a2.115,2.115,0,1,1-2.115-2.115A2.12,2.12,0,0,1,745.65,18.755Z" transform="translate(-605.551 -13.836)"/>
            <path id="XMLID_2732_" class="cls-1" d="M762.839,19.925A4.134,4.134,0,1,1,758.7,15.79,4.137,4.137,0,0,1,762.839,19.925Z" transform="translate(-587.455 -15.006)"/>
            <path id="XMLID_2731_" class="cls-1" d="M773.65,18.755a2.115,2.115,0,1,1-2.115-2.115A2.119,2.119,0,0,1,773.65,18.755Z" transform="translate(-567.019 -13.836)"/>
            <path id="XMLID_2730_" class="cls-1" d="M790.041,19.636A3.636,3.636,0,1,1,786.406,16,3.635,3.635,0,0,1,790.041,19.636Z" transform="translate(-548.647 -14.717)"/>
            <path id="XMLID_2729_" class="cls-1" d="M801.65,18.755a2.115,2.115,0,1,1-2.115-2.115A2.12,2.12,0,0,1,801.65,18.755Z" transform="translate(-528.486 -13.836)"/>
            <path id="XMLID_2728_" class="cls-1" d="M818.6,19.842a3.992,3.992,0,1,1-3.992-3.992A3.985,3.985,0,0,1,818.6,19.842Z" transform="translate(-510.321 -14.923)"/>
            <path id="XMLID_2727_" class="cls-1" d="M829.64,18.755a2.115,2.115,0,1,1-2.115-2.115A2.12,2.12,0,0,1,829.64,18.755Z" transform="translate(-489.967 -13.836)"/>
          </g>
        </g>
        <g id="XMLID_996_" class="cls-6" transform="translate(125.241 566.563)">
          <g id="XMLID_2652_" transform="translate(1708.128 536.609)">
            <path id="XMLID_2657_" class="cls-1" d="M723.09,228.695a2.115,2.115,0,1,1-2.115-2.115A2.12,2.12,0,0,1,723.09,228.695Z" transform="translate(-718.86 -224.798)"/>
            <path id="XMLID_2656_" class="cls-1" d="M737.09,228.695a2.115,2.115,0,1,1-2.115-2.115A2.119,2.119,0,0,1,737.09,228.695Z" transform="translate(-699.594 -224.798)"/>
            <path id="XMLID_2655_" class="cls-1" d="M795.894,229.727a3.9,3.9,0,1,1-3.9-3.9A3.9,3.9,0,0,1,795.894,229.727Z" transform="translate(-623.575 -225.83)"/>
            <path id="XMLID_2654_" class="cls-1" d="M807.08,228.695a2.115,2.115,0,1,1-2.115-2.115A2.12,2.12,0,0,1,807.08,228.695Z" transform="translate(-603.276 -224.798)"/>
            <circle id="XMLID_2653_" class="cls-1" cx="3.802" cy="3.802" r="3.802" transform="translate(231.129 0.095)"/>
          </g>
          <g id="XMLID_2643_" transform="translate(1608.353 565.883)">
            <path id="XMLID_2651_" class="cls-1" d="M681.1,241.2a2.115,2.115,0,1,1-2.115-2.115A2.12,2.12,0,0,1,681.1,241.2Z" transform="translate(-676.87 -236.856)"/>
            <path id="XMLID_2650_" class="cls-1" d="M697.754,242.182a3.8,3.8,0,1,1-3.8-3.8A3.813,3.813,0,0,1,697.754,242.182Z" transform="translate(-658.595 -237.834)"/>
            <circle id="XMLID_2649_" class="cls-1" cx="2.115" cy="2.115" r="2.115" transform="translate(66.509 2.234)"/>
            <path id="XMLID_2648_" class="cls-1" d="M723.09,241.2a2.115,2.115,0,1,1-2.115-2.115A2.12,2.12,0,0,1,723.09,241.2Z" transform="translate(-619.085 -236.856)"/>
            <path id="XMLID_2647_" class="cls-1" d="M740.617,242.5a4.348,4.348,0,1,1-4.348-4.348A4.35,4.35,0,0,1,740.617,242.5Z" transform="translate(-601.112 -238.15)"/>
            <circle id="XMLID_2646_" class="cls-1" cx="2.115" cy="2.115" r="2.115" transform="translate(166.308 2.234)"/>
            <path id="XMLID_2645_" class="cls-1" d="M765.09,241.2a2.115,2.115,0,1,1-2.115-2.115A2.12,2.12,0,0,1,765.09,241.2Z" transform="translate(-561.286 -236.856)"/>
            <circle id="XMLID_2644_" class="cls-1" cx="2.115" cy="2.115" r="2.115" transform="translate(232.816 2.234)"/>
          </g>
          <g id="XMLID_2632_" transform="translate(1641.595 596.702)">
            <circle id="XMLID_2642_" class="cls-1" cx="2.115" cy="2.115" r="2.115" transform="translate(0 1.141)"/>
            <circle id="XMLID_2641_" class="cls-1" cx="2.115" cy="2.115" r="2.115" transform="translate(33.266 1.141)"/>
            <path id="XMLID_2640_" class="cls-1" d="M723.09,253.715a2.115,2.115,0,1,1-2.115-2.115A2.12,2.12,0,0,1,723.09,253.715Z" transform="translate(-652.328 -250.459)"/>
            <path id="XMLID_2639_" class="cls-1" d="M737.09,253.715a2.115,2.115,0,1,1-2.115-2.115A2.12,2.12,0,0,1,737.09,253.715Z" transform="translate(-633.061 -250.459)"/>
            <circle id="XMLID_2638_" class="cls-1" cx="2.115" cy="2.115" r="2.115" transform="translate(133.065 1.141)"/>
            <path id="XMLID_2637_" class="cls-1" d="M765.09,253.715a2.115,2.115,0,1,1-2.115-2.115A2.12,2.12,0,0,1,765.09,253.715Z" transform="translate(-594.529 -250.459)"/>
            <circle id="XMLID_2636_" class="cls-1" cx="3.255" cy="3.255" r="3.255" transform="translate(198.433)"/>
            <path id="XMLID_2635_" class="cls-1" d="M793.08,253.715a2.115,2.115,0,1,1-2.115-2.115A2.119,2.119,0,0,1,793.08,253.715Z" transform="translate(-556.01 -250.459)"/>
            <path id="XMLID_2634_" class="cls-1" d="M807.08,253.715a2.115,2.115,0,1,1-2.115-2.115A2.12,2.12,0,0,1,807.08,253.715Z" transform="translate(-536.744 -250.459)"/>
            <circle id="XMLID_2633_" class="cls-1" cx="2.115" cy="2.115" r="2.115" transform="translate(299.349 1.141)"/>
          </g>
          <g id="XMLID_2625_" transform="translate(1706.298 625.548)">
            <path id="XMLID_2631_" class="cls-1" d="M725.931,267.271a3.921,3.921,0,1,1-3.921-3.921A3.924,3.924,0,0,1,725.931,267.271Z" transform="translate(-718.09 -263.136)"/>
            <path id="XMLID_2630_" class="cls-1" d="M737.09,266.225a2.115,2.115,0,1,1-2.115-2.115A2.12,2.12,0,0,1,737.09,266.225Z" transform="translate(-697.764 -262.09)"/>
            <circle id="XMLID_2629_" class="cls-1" cx="2.115" cy="2.115" r="2.115" transform="translate(68.362 2.02)"/>
            <path id="XMLID_2628_" class="cls-1" d="M765.09,266.225a2.115,2.115,0,1,1-2.115-2.115A2.12,2.12,0,0,1,765.09,266.225Z" transform="translate(-659.232 -262.09)"/>
            <circle id="XMLID_2627_" class="cls-1" cx="2.115" cy="2.115" r="2.115" transform="translate(134.871 2.02)"/>
            <path id="XMLID_2626_" class="cls-1" d="M796.269,267.395a4.134,4.134,0,1,1-4.134-4.134A4.137,4.137,0,0,1,796.269,267.395Z" transform="translate(-621.883 -263.26)"/>
          </g>
          <g id="XMLID_2613_" transform="translate(1741.394 654.704)">
            <path id="XMLID_2620_" class="cls-1" d="M737.09,278.735a2.115,2.115,0,1,1-2.115-2.115A2.12,2.12,0,0,1,737.09,278.735Z" transform="translate(-732.86 -274.03)"/>
            <circle id="XMLID_2619_" class="cls-1" cx="2.115" cy="2.115" r="2.115" transform="translate(33.266 2.59)"/>
            <path id="XMLID_2618_" class="cls-1" d="M769.18,280.235a4.7,4.7,0,1,1-4.7-4.7A4.7,4.7,0,0,1,769.18,280.235Z" transform="translate(-695.828 -275.53)"/>
            <circle id="XMLID_2617_" class="cls-1" cx="2.115" cy="2.115" r="2.115" transform="translate(99.775 2.59)"/>
            <path id="XMLID_2616_" class="cls-1" d="M793.08,278.735a2.115,2.115,0,1,1-2.115-2.115A2.119,2.119,0,0,1,793.08,278.735Z" transform="translate(-655.809 -274.03)"/>
            <path id="XMLID_2615_" class="cls-1" d="M807.08,278.735a2.115,2.115,0,1,1-2.115-2.115A2.12,2.12,0,0,1,807.08,278.735Z" transform="translate(-636.542 -274.03)"/>
            <circle id="XMLID_2614_" class="cls-1" cx="2.115" cy="2.115" r="2.115" transform="translate(199.55 2.59)"/>
          </g>
          <g id="XMLID_2604_" transform="translate(1667.685 679.844)">
            <circle id="XMLID_2610_" class="cls-1" cx="9.291" cy="9.291" r="9.291"/>
            <path id="XMLID_2609_" class="cls-1" d="M723.09,291.245a2.115,2.115,0,1,1-2.115-2.115A2.09,2.09,0,0,1,723.09,291.245Z" transform="translate(-678.418 -281.954)"/>
            <circle id="XMLID_2608_" class="cls-1" cx="4.348" cy="4.348" r="4.348" transform="translate(71.475 4.942)"/>
            <path id="XMLID_2607_" class="cls-1" d="M751.09,291.245a2.115,2.115,0,1,1-2.115-2.115A2.09,2.09,0,0,1,751.09,291.245Z" transform="translate(-639.885 -281.954)"/>
            <path id="XMLID_2606_" class="cls-1" d="M765.09,291.245a2.115,2.115,0,1,1-2.115-2.115A2.09,2.09,0,0,1,765.09,291.245Z" transform="translate(-620.619 -281.954)"/>
            <path id="XMLID_2605_" class="cls-1" d="M779.08,291.245a2.115,2.115,0,1,1-2.115-2.115A2.09,2.09,0,0,1,779.08,291.245Z" transform="translate(-601.367 -281.954)"/>
          </g>
          <g id="XMLID_2595_" transform="translate(1708.128 714.346)">
            <path id="XMLID_2603_" class="cls-1" d="M723.09,303.755a2.115,2.115,0,1,1-2.115-2.115A2.09,2.09,0,0,1,723.09,303.755Z" transform="translate(-718.86 -299.24)"/>
            <path id="XMLID_2602_" class="cls-1" d="M737.09,303.755a2.115,2.115,0,1,1-2.115-2.115A2.09,2.09,0,0,1,737.09,303.755Z" transform="translate(-699.594 -299.24)"/>
            <path id="XMLID_2601_" class="cls-1" d="M754.87,305.145a4.515,4.515,0,1,1-4.515-4.515A4.513,4.513,0,0,1,754.87,305.145Z" transform="translate(-681.731 -300.63)"/>
            <path id="XMLID_2600_" class="cls-1" d="M765.09,303.755a2.115,2.115,0,1,1-2.115-2.115A2.09,2.09,0,0,1,765.09,303.755Z" transform="translate(-661.061 -299.24)"/>
            <circle id="XMLID_2599_" class="cls-1" cx="2.115" cy="2.115" r="2.115" transform="translate(133.041 2.4)"/>
            <path id="XMLID_2598_" class="cls-1" d="M796.645,305.062a4.372,4.372,0,1,1-4.372-4.372A4.376,4.376,0,0,1,796.645,305.062Z" transform="translate(-623.85 -300.548)"/>
            <path id="XMLID_2597_" class="cls-1" d="M807.08,303.755a2.115,2.115,0,1,1-2.115-2.115A2.09,2.09,0,0,1,807.08,303.755Z" transform="translate(-603.276 -299.24)"/>
            <circle id="XMLID_2596_" class="cls-1" cx="2.115" cy="2.115" r="2.115" transform="translate(232.816 2.4)"/>
          </g>
          <g id="XMLID_2586_" transform="translate(1606.737 744.475)">
            <path id="XMLID_2594_" class="cls-1" d="M683.6,317.187a3.707,3.707,0,1,1-3.707-3.707A3.712,3.712,0,0,1,683.6,317.187Z" transform="translate(-676.19 -313.076)"/>
            <circle id="XMLID_2593_" class="cls-1" cx="2.115" cy="2.115" r="2.115" transform="translate(34.858 1.996)"/>
            <circle id="XMLID_2592_" class="cls-1" cx="2.115" cy="2.115" r="2.115" transform="translate(68.125 1.996)"/>
            <path id="XMLID_2591_" class="cls-1" d="M726.241,317.421a4.111,4.111,0,1,1-4.111-4.111A4.112,4.112,0,0,1,726.241,317.421Z" transform="translate(-618.625 -313.31)"/>
            <path id="XMLID_2590_" class="cls-1" d="M737.09,316.265a2.115,2.115,0,1,1-2.115-2.115A2.09,2.09,0,0,1,737.09,316.265Z" transform="translate(-598.203 -312.154)"/>
            <circle id="XMLID_2589_" class="cls-1" cx="2.115" cy="2.115" r="2.115" transform="translate(167.923 1.996)"/>
            <path id="XMLID_2588_" class="cls-1" d="M765.09,316.265a2.115,2.115,0,1,1-2.115-2.115A2.09,2.09,0,0,1,765.09,316.265Z" transform="translate(-559.67 -312.154)"/>
            <circle id="XMLID_2587_" class="cls-1" cx="2.115" cy="2.115" r="2.115" transform="translate(234.432 1.996)"/>
          </g>
          <g id="XMLID_1350_" transform="translate(1674.861 772.989)">
            <circle id="XMLID_2583_" class="cls-1" cx="2.115" cy="2.115" r="2.115" transform="translate(0 3.184)"/>
            <path id="XMLID_2050_" class="cls-1" d="M723.09,328.765a2.115,2.115,0,1,1-2.115-2.115A2.12,2.12,0,0,1,723.09,328.765Z" transform="translate(-685.594 -323.466)"/>
            <path id="XMLID_1371_" class="cls-1" d="M737.09,328.765a2.115,2.115,0,1,1-2.115-2.115A2.12,2.12,0,0,1,737.09,328.765Z" transform="translate(-666.328 -323.466)"/>
            <circle id="XMLID_1370_" class="cls-1" cx="2.115" cy="2.115" r="2.115" transform="translate(99.799 3.184)"/>
            <circle id="XMLID_1369_" class="cls-1" cx="5.299" cy="5.299" r="5.299" transform="translate(129.857)"/>
            <circle id="XMLID_1366_" class="cls-1" cx="2.115" cy="2.115" r="2.115" transform="translate(166.308 3.184)"/>
            <path id="XMLID_1365_" class="cls-1" d="M793.08,328.765a2.115,2.115,0,1,1-2.115-2.115A2.12,2.12,0,0,1,793.08,328.765Z" transform="translate(-589.276 -323.466)"/>
            <circle id="XMLID_1364_" class="cls-1" cx="3.944" cy="3.944" r="3.944" transform="translate(231.011 1.354)"/>
            <circle id="XMLID_1351_" class="cls-1" cx="2.115" cy="2.115" r="2.115" transform="translate(266.083 3.184)"/>
          </g>
          <g id="XMLID_1325_" transform="translate(1708.128 804.972)">
            <path id="XMLID_1349_" class="cls-1" d="M723.09,341.275a2.115,2.115,0,1,1-2.115-2.115A2.12,2.12,0,0,1,723.09,341.275Z" transform="translate(-718.86 -338.233)"/>
            <path id="XMLID_1347_" class="cls-1" d="M737.09,341.275a2.115,2.115,0,1,1-2.115-2.115A2.12,2.12,0,0,1,737.09,341.275Z" transform="translate(-699.594 -338.233)"/>
            <circle id="XMLID_1335_" class="cls-1" cx="2.115" cy="2.115" r="2.115" transform="translate(66.533 0.927)"/>
            <path id="XMLID_1334_" class="cls-1" d="M765.09,341.275a2.115,2.115,0,1,1-2.115-2.115A2.12,2.12,0,0,1,765.09,341.275Z" transform="translate(-661.061 -338.233)"/>
            <path id="XMLID_1333_" class="cls-1" d="M780.543,341.811a3.042,3.042,0,1,1-3.042-3.042A3.032,3.032,0,0,1,780.543,341.811Z" transform="translate(-642.346 -338.77)"/>
            <path id="XMLID_1326_" class="cls-1" d="M793.08,341.275a2.115,2.115,0,1,1-2.115-2.115A2.119,2.119,0,0,1,793.08,341.275Z" transform="translate(-622.543 -338.233)"/>
          </g>
          <g id="XMLID_1261_" transform="translate(1608.353 833.748)">
            <path id="XMLID_1303_" class="cls-1" d="M681.1,353.785a2.115,2.115,0,1,1-2.115-2.115A2.12,2.12,0,0,1,681.1,353.785Z" transform="translate(-676.87 -349.793)"/>
            <path id="XMLID_1302_" class="cls-1" d="M695.1,353.785a2.115,2.115,0,1,1-2.115-2.115A2.12,2.12,0,0,1,695.1,353.785Z" transform="translate(-657.604 -349.793)"/>
            <path id="XMLID_1301_" class="cls-1" d="M712.064,354.872a3.992,3.992,0,1,1-3.992-3.992A3.985,3.985,0,0,1,712.064,354.872Z" transform="translate(-639.425 -350.88)"/>
            <path id="XMLID_1299_" class="cls-1" d="M723.09,353.785a2.115,2.115,0,1,1-2.115-2.115A2.12,2.12,0,0,1,723.09,353.785Z" transform="translate(-619.085 -349.793)"/>
            <path id="XMLID_1298_" class="cls-1" d="M737.09,353.785a2.115,2.115,0,1,1-2.115-2.115A2.12,2.12,0,0,1,737.09,353.785Z" transform="translate(-599.819 -349.793)"/>
            <path id="XMLID_1297_" class="cls-1" d="M751.09,353.785a2.115,2.115,0,1,1-2.115-2.115A2.12,2.12,0,0,1,751.09,353.785Z" transform="translate(-580.552 -349.793)"/>
            <path id="XMLID_1279_" class="cls-1" d="M765.09,353.785a2.115,2.115,0,1,1-2.115-2.115A2.12,2.12,0,0,1,765.09,353.785Z" transform="translate(-561.286 -349.793)"/>
            <path id="XMLID_1278_" class="cls-1" d="M781.481,354.666a3.636,3.636,0,1,1-3.636-3.636A3.635,3.635,0,0,1,781.481,354.666Z" transform="translate(-542.915 -350.674)"/>
            <path id="XMLID_1277_" class="cls-1" d="M793.08,353.785a2.115,2.115,0,1,1-2.115-2.115A2.12,2.12,0,0,1,793.08,353.785Z" transform="translate(-522.768 -349.793)"/>
            <path id="XMLID_1263_" class="cls-1" d="M807.08,353.785a2.115,2.115,0,1,1-2.115-2.115A2.12,2.12,0,0,1,807.08,353.785Z" transform="translate(-503.501 -349.793)"/>
            <path id="XMLID_1262_" class="cls-1" d="M821.08,353.785a2.115,2.115,0,1,1-2.115-2.115A2.12,2.12,0,0,1,821.08,353.785Z" transform="translate(-484.235 -349.793)"/>
          </g>
          <g id="XMLID_998_" transform="translate(1706.631 863.664)">
            <path id="XMLID_1254_" class="cls-1" d="M725.454,367.162a3.612,3.612,0,1,1-3.612-3.612A3.61,3.61,0,0,1,725.454,367.162Z" transform="translate(-718.23 -363.36)"/>
            <path id="XMLID_1253_" class="cls-1" d="M737.09,366.295a2.115,2.115,0,1,1-2.115-2.115A2.12,2.12,0,0,1,737.09,366.295Z" transform="translate(-698.097 -362.493)"/>
            <circle id="XMLID_1239_" class="cls-1" cx="2.115" cy="2.115" r="2.115" transform="translate(68.03 1.687)"/>
            <path id="XMLID_1238_" class="cls-1" d="M809.734,367.272a3.8,3.8,0,1,1-3.8-3.8A3.8,3.8,0,0,1,809.734,367.272Z" transform="translate(-602.77 -363.47)"/>
            <circle id="XMLID_1237_" class="cls-1" cx="2.115" cy="2.115" r="2.115" transform="translate(234.313 1.687)"/>
          </g>
        </g>
        <g id="XMLID_1395_" class="cls-6" transform="translate(125.241 566.563)">
          <g id="XMLID_1549_" transform="translate(1423.606 968.523)">
            <path id="XMLID_1555_" class="cls-1" d="M603.35,409.715a2.115,2.115,0,1,1-2.115-2.115A2.12,2.12,0,0,1,603.35,409.715Z" transform="translate(-599.12 -407.6)"/>
          </g>
          <g id="XMLID_1537_" transform="translate(1390.34 994.638)">
            <path id="XMLID_1544_" class="cls-1" d="M589.35,422.225a2.115,2.115,0,1,1-2.115-2.115A2.09,2.09,0,0,1,589.35,422.225Z" transform="translate(-585.12 -416.499)"/>
            <circle id="XMLID_1543_" class="cls-1" cx="5.727" cy="5.727" r="5.727" transform="translate(29.631)"/>
            <path id="XMLID_1542_" class="cls-1" d="M617.34,422.225a2.115,2.115,0,1,1-2.115-2.115A2.089,2.089,0,0,1,617.34,422.225Z" transform="translate(-546.601 -416.499)"/>
          </g>
          <g id="XMLID_1525_" transform="translate(1390.34 1027.975)">
            <path id="XMLID_1532_" class="cls-1" d="M589.35,434.735a2.115,2.115,0,1,1-2.115-2.115A2.09,2.09,0,0,1,589.35,434.735Z" transform="translate(-585.12 -432.62)"/>
            <path id="XMLID_1531_" class="cls-1" d="M603.35,434.735a2.115,2.115,0,1,1-2.115-2.115A2.09,2.09,0,0,1,603.35,434.735Z" transform="translate(-565.854 -432.62)"/>
            <path id="XMLID_1530_" class="cls-1" d="M617.34,434.735a2.115,2.115,0,1,1-2.115-2.115A2.089,2.089,0,0,1,617.34,434.735Z" transform="translate(-546.601 -432.62)"/>
          </g>
          <g id="XMLID_1513_" transform="translate(1357.073 1055.111)">
            <circle id="XMLID_1521_" class="cls-1" cx="2.115" cy="2.115" r="2.115" transform="translate(0 2.59)"/>
            <path id="XMLID_1520_" class="cls-1" d="M589.35,447.245a2.115,2.115,0,1,1-2.115-2.115A2.09,2.09,0,0,1,589.35,447.245Z" transform="translate(-551.854 -442.54)"/>
            <path id="XMLID_1519_" class="cls-1" d="M603.35,447.245a2.115,2.115,0,1,1-2.115-2.115A2.09,2.09,0,0,1,603.35,447.245Z" transform="translate(-532.588 -442.54)"/>
            <circle id="XMLID_1518_" class="cls-1" cx="4.705" cy="4.705" r="4.705" transform="translate(97.185)"/>
            <circle id="XMLID_1517_" class="cls-1" cx="2.115" cy="2.115" r="2.115" transform="translate(133.041 2.59)"/>
          </g>
          <g id="XMLID_1501_" transform="translate(1357.073 1085.169)">
            <path id="XMLID_1509_" class="cls-1" d="M575.35,459.745a2.115,2.115,0,1,1-2.115-2.115A2.12,2.12,0,0,1,575.35,459.745Z" transform="translate(-571.12 -455.396)"/>
            <path id="XMLID_1508_" class="cls-1" d="M592.877,461.038a4.348,4.348,0,1,1-4.348-4.348A4.35,4.35,0,0,1,592.877,461.038Z" transform="translate(-553.147 -456.69)"/>
            <path id="XMLID_1507_" class="cls-1" d="M603.35,459.745a2.115,2.115,0,1,1-2.115-2.115A2.12,2.12,0,0,1,603.35,459.745Z" transform="translate(-532.588 -455.396)"/>
            <path id="XMLID_1506_" class="cls-1" d="M617.34,459.745a2.115,2.115,0,1,1-2.115-2.115A2.12,2.12,0,0,1,617.34,459.745Z" transform="translate(-513.335 -455.396)"/>
            <path id="XMLID_1505_" class="cls-1" d="M631.34,459.745a2.115,2.115,0,1,1-2.115-2.115A2.12,2.12,0,0,1,631.34,459.745Z" transform="translate(-494.069 -455.396)"/>
          </g>
          <g id="XMLID_1489_" transform="translate(1320.457 1111.925)">
            <circle id="XMLID_1498_" class="cls-1" cx="5.465" cy="5.465" r="5.465" transform="translate(0 1.853)"/>
            <circle id="XMLID_1497_" class="cls-1" cx="2.115" cy="2.115" r="2.115" transform="translate(36.617 5.204)"/>
            <path id="XMLID_1496_" class="cls-1" d="M589.35,472.255a2.115,2.115,0,1,1-2.115-2.115A2.12,2.12,0,0,1,589.35,472.255Z" transform="translate(-515.237 -464.936)"/>
            <path id="XMLID_1495_" class="cls-1" d="M611.557,475.269a7.319,7.319,0,1,1-7.319-7.319A7.322,7.322,0,0,1,611.557,475.269Z" transform="translate(-498.998 -467.95)"/>
            <path id="XMLID_1494_" class="cls-1" d="M617.34,472.255a2.115,2.115,0,1,1-2.115-2.115A2.119,2.119,0,0,1,617.34,472.255Z" transform="translate(-476.718 -464.936)"/>
            <circle id="XMLID_1493_" class="cls-1" cx="2.115" cy="2.115" r="2.115" transform="translate(169.658 5.204)"/>
            <path id="XMLID_1492_" class="cls-1" d="M648.9,473.562a4.372,4.372,0,1,1-4.372-4.372A4.376,4.376,0,0,1,648.9,473.562Z" transform="translate(-439.493 -466.244)"/>
          </g>
          <g id="XMLID_1477_" transform="translate(1323.807 1144.859)">
            <circle id="XMLID_1486_" class="cls-1" cx="2.115" cy="2.115" r="2.115" transform="translate(0 1.996)"/>
            <path id="XMLID_1485_" class="cls-1" d="M578.492,485.921a4.111,4.111,0,1,1-4.111-4.111A4.112,4.112,0,0,1,578.492,485.921Z" transform="translate(-539.023 -481.81)"/>
            <path id="XMLID_1484_" class="cls-1" d="M589.35,484.765a2.115,2.115,0,1,1-2.115-2.115A2.12,2.12,0,0,1,589.35,484.765Z" transform="translate(-518.588 -480.654)"/>
            <path id="XMLID_1483_" class="cls-1" d="M603.35,484.765a2.115,2.115,0,1,1-2.115-2.115A2.12,2.12,0,0,1,603.35,484.765Z" transform="translate(-499.321 -480.654)"/>
            <path id="XMLID_1482_" class="cls-1" d="M617.34,484.765a2.115,2.115,0,1,1-2.115-2.115A2.119,2.119,0,0,1,617.34,484.765Z" transform="translate(-480.069 -480.654)"/>
            <circle id="XMLID_1481_" class="cls-1" cx="2.115" cy="2.115" r="2.115" transform="translate(166.308 1.996)"/>
            <circle id="XMLID_1480_" class="cls-1" cx="2.115" cy="2.115" r="2.115" transform="translate(199.574 1.996)"/>
          </g>
          <g id="XMLID_1465_" transform="translate(1289.258 1173.396)">
            <circle id="XMLID_1475_" class="cls-1" cx="3.398" cy="3.398" r="3.398" transform="translate(0 1.901)"/>
            <circle id="XMLID_1474_" class="cls-1" cx="2.115" cy="2.115" r="2.115" transform="translate(34.549 3.184)"/>
            <circle id="XMLID_1473_" class="cls-1" cx="2.115" cy="2.115" r="2.115" transform="translate(67.816 3.184)"/>
            <path id="XMLID_1472_" class="cls-1" d="M589.35,497.275a2.115,2.115,0,1,1-2.115-2.115A2.12,2.12,0,0,1,589.35,497.275Z" transform="translate(-484.038 -491.976)"/>
            <path id="XMLID_1471_" class="cls-1" d="M603.35,497.275a2.115,2.115,0,1,1-2.115-2.115A2.12,2.12,0,0,1,603.35,497.275Z" transform="translate(-464.772 -491.976)"/>
            <circle id="XMLID_1470_" class="cls-1" cx="5.299" cy="5.299" r="5.299" transform="translate(164.407)"/>
            <circle id="XMLID_1469_" class="cls-1" cx="2.115" cy="2.115" r="2.115" transform="translate(200.857 3.184)"/>
            <circle id="XMLID_1468_" class="cls-1" cx="2.115" cy="2.115" r="2.115" transform="translate(234.123 3.184)"/>
            <path id="XMLID_1467_" class="cls-1" d="M662.219,498.334a3.944,3.944,0,1,1-3.944-3.944A3.935,3.935,0,0,1,662.219,498.334Z" transform="translate(-388.794 -493.036)"/>
          </g>
          <g id="XMLID_1453_" transform="translate(1290.541 1205.379)">
            <circle id="XMLID_1463_" class="cls-1" cx="2.115" cy="2.115" r="2.115" transform="translate(0 0.927)"/>
            <circle id="XMLID_1462_" class="cls-1" cx="2.115" cy="2.115" r="2.115" transform="translate(33.266 0.927)"/>
            <circle id="XMLID_1461_" class="cls-1" cx="2.115" cy="2.115" r="2.115" transform="translate(66.533 0.927)"/>
            <path id="XMLID_1460_" class="cls-1" d="M589.35,509.785a2.115,2.115,0,1,1-2.115-2.115A2.12,2.12,0,0,1,589.35,509.785Z" transform="translate(-485.321 -506.743)"/>
            <path id="XMLID_1459_" class="cls-1" d="M603.35,509.785a2.115,2.115,0,1,1-2.115-2.115A2.12,2.12,0,0,1,603.35,509.785Z" transform="translate(-466.055 -506.743)"/>
            <path id="XMLID_1458_" class="cls-1" d="M617.34,509.785a2.115,2.115,0,1,1-2.115-2.115A2.119,2.119,0,0,1,617.34,509.785Z" transform="translate(-446.803 -506.743)"/>
            <path id="XMLID_1457_" class="cls-1" d="M632.8,510.322a3.042,3.042,0,1,1-3.042-3.042A3.032,3.032,0,0,1,632.8,510.322Z" transform="translate(-428.073 -507.28)"/>
            <circle id="XMLID_1456_" class="cls-1" cx="2.115" cy="2.115" r="2.115" transform="translate(232.84 0.927)"/>
            <path id="XMLID_1455_" class="cls-1" d="M659.34,509.785a2.115,2.115,0,1,1-2.115-2.115A2.12,2.12,0,0,1,659.34,509.785Z" transform="translate(-389.004 -506.743)"/>
          </g>
        </g>
        <g id="XMLID_1381_" class="cls-6" transform="translate(125.241 566.563)">
          <g id="XMLID_1380_" transform="translate(1098.975 353.763)">
            <g id="Group_8" data-name="Group 8">
              <line id="Line_1" data-name="Line 1" class="cls-12" y1="10.075" x2="10.075" transform="translate(0 123.869)"/>
              <line id="Line_2" data-name="Line 2" class="cls-13" y1="79.649" x2="79.649" transform="translate(32.839 21.457)"/>
              <line id="Line_3" data-name="Line 3" class="cls-12" y1="10.075" x2="10.099" transform="translate(123.869)"/>
            </g>
          </g>
          <line id="XMLID_1382_" class="cls-14" y1="133.944" x2="133.968" transform="translate(1172.042 353.763)"/>
          <g id="XMLID_1383_" transform="translate(1245.109 353.763)">
            <g id="Group_9" data-name="Group 9">
              <line id="Line_4" data-name="Line 4" class="cls-15" y1="10.075" x2="10.075" transform="translate(0 123.869)"/>
              <line id="Line_5" data-name="Line 5" class="cls-16" y1="79.649" x2="79.649" transform="translate(32.839 21.457)"/>
              <line id="Line_6" data-name="Line 6" class="cls-15" y1="10.075" x2="10.099" transform="translate(123.869)"/>
            </g>
          </g>
          <g id="XMLID_1384_" transform="translate(1318.176 353.763)">
            <g id="Group_10" data-name="Group 10">
              <line id="Line_7" data-name="Line 7" class="cls-15" y1="10.075" x2="10.075" transform="translate(0 123.869)"/>
              <line id="Line_8" data-name="Line 8" class="cls-16" y1="79.649" x2="79.649" transform="translate(32.839 21.457)"/>
              <line id="Line_9" data-name="Line 9" class="cls-15" y1="10.075" x2="10.099" transform="translate(123.869)"/>
            </g>
          </g>
          <line id="XMLID_1385_" class="cls-17" y1="133.944" x2="133.968" transform="translate(1391.243 353.763)"/>
          <g id="XMLID_1386_" transform="translate(1464.31 353.763)">
            <g id="Group_11" data-name="Group 11">
              <line id="Line_10" data-name="Line 10" class="cls-15" y1="10.075" x2="10.075" transform="translate(0 123.869)"/>
              <line id="Line_11" data-name="Line 11" class="cls-16" y1="79.649" x2="79.649" transform="translate(32.839 21.457)"/>
              <line id="Line_12" data-name="Line 12" class="cls-15" y1="10.075" x2="10.099" transform="translate(123.869)"/>
            </g>
          </g>
        </g>
        <g id="XMLID_2704_" class="cls-6" transform="translate(125.241 566.563)">
          <path id="XMLID_1823_" class="cls-1" d="M453.553,233.271l-20.863,34.953-27.112,45.432L379.8,267.464,359.98,231.94Z" transform="translate(495.391 319.187)"/>
          <g id="XMLID_1502_" transform="translate(855.371 572.132)">
            <path id="XMLID_1533_" class="cls-17" d="M453.553,242.111l-20.863,34.953L405.579,322.5,379.8,276.3,359.98,240.78Z" transform="translate(-359.98 -240.78)"/>
            <path id="XMLID_1528_" class="cls-14" d="M453.553,256.964l-47.975,80.362-45.6-81.716,19.817.285,25.781,46.193,27.112-45.432Z" transform="translate(-359.98 -220.372)"/>
            <line id="XMLID_1512_" class="cls-14" y2="35.262" transform="translate(93.573 1.331)"/>
            <line id="XMLID_1516_" class="cls-14" y2="35.238" transform="translate(45.599 81.716)"/>
            <line id="XMLID_1522_" class="cls-14" y2="35.238"/>
          </g>
        </g>
        <g id="XMLID_1504_" class="cls-6" transform="translate(125.241 566.563)">
          <path id="XMLID_1524_" class="cls-14" d="M187.265,11.063,114.316,133.27,44.98,9.02l30.13.428,39.207,70.239,41.226-69.1Z" transform="translate(61.9 12.413)"/>
          <line id="XMLID_1523_" class="cls-14" y2="53.606" transform="translate(249.164 -30.13)"/>
          <line id="XMLID_1511_" class="cls-14" y2="53.582" transform="translate(176.216 92.1)"/>
          <line id="XMLID_1510_" class="cls-14" y2="53.582" transform="translate(106.88 -32.149)"/>
          <path id="XMLID_1526_" class="cls-18" d="M187.265-11.51,155.543,41.621l-41.226,69.1L75.11,40.48,44.98-13.53Z" transform="translate(61.9 -18.619)"/>
        </g>
        <g id="XMLID_1826_" class="cls-19" transform="translate(125.241 566.563)">
          <line id="XMLID_1824_" class="cls-20" x2="60.378" y2="60.402" transform="translate(141.786 542.549)"/>
          <line id="XMLID_1825_" class="cls-21" x1="60.378" y2="60.402" transform="translate(141.786 542.549)"/>
        </g>
        <g id="XMLID_1828_" class="cls-6" transform="translate(125.241 566.563)">
          <line id="XMLID_1830_" class="cls-22" x2="50.113" y2="50.089" transform="translate(656.605 43.175)"/>
          <line id="XMLID_1829_" class="cls-22" x1="50.113" y2="50.089" transform="translate(656.605 43.175)"/>
        </g>
        <g id="XMLID_2722_" class="cls-6" transform="translate(125.241 566.563)">
          <line id="XMLID_2741_" class="cls-23" x2="31.888" y2="31.864" transform="translate(1008.087 1090.468)"/>
          <line id="XMLID_2723_" class="cls-23" x1="31.888" y2="31.864" transform="translate(1008.087 1090.468)"/>
        </g>
        <g id="XMLID_1831_" class="cls-6" transform="translate(125.241 566.563)">
          <line id="XMLID_1833_" class="cls-21" x2="60.402" y2="60.378" transform="translate(982.139 262.97)"/>
          <line id="XMLID_1832_" class="cls-21" x1="60.402" y2="60.378" transform="translate(982.139 262.97)"/>
        </g>
        <g id="XMLID_1984_" class="cls-6" transform="translate(125.241 566.563)">
          <line id="XMLID_1986_" class="cls-14" x2="27.112" y2="27.112" transform="translate(1622.728 470.29)"/>
          <line id="XMLID_1985_" class="cls-14" x1="27.112" y2="27.112" transform="translate(1622.728 470.29)"/>
        </g>
        <g id="XMLID_1987_" class="cls-6" transform="translate(125.241 566.563)">
          <line id="XMLID_1989_" class="cls-24" x2="27.136" y2="27.136" transform="translate(944.12 425.333)"/>
          <line id="XMLID_1988_" class="cls-24" x1="27.136" y2="27.136" transform="translate(944.12 425.333)"/>
        </g>
        <g id="XMLID_2663_" class="cls-6" transform="translate(125.241 566.563)">
          <line id="XMLID_2721_" class="cls-25" x2="27.136" y2="27.136" transform="translate(793.828 756.998)"/>
          <line id="XMLID_2720_" class="cls-25" x1="27.136" y2="27.136" transform="translate(793.828 756.998)"/>
        </g>
        <g id="XMLID_2676_" class="cls-6" transform="translate(125.241 566.563)">
          <line id="XMLID_2678_" class="cls-26" x2="27.136" y2="27.136" transform="translate(887.401 69.978)"/>
          <line id="XMLID_2677_" class="cls-26" x1="27.136" y2="27.136" transform="translate(887.401 69.978)"/>
        </g>
        <g id="Group_16" data-name="Group 16" class="cls-4" transform="translate(125.241 566.563)">
          <circle id="XMLID_1983_" class="cls-17" cx="10.693" cy="10.693" r="10.693" transform="translate(490.273 768.688)"/>
        </g>
        <g id="Group_17" data-name="Group 17" class="cls-4" transform="translate(125.241 566.563)">
          <circle id="XMLID_2679_" class="cls-14" cx="10.693" cy="10.693" r="10.693" transform="translate(1771.025 130.689)"/>
        </g>
        <g id="XMLID_2692_" class="cls-6" transform="translate(125.241 566.563)">
          <g id="XMLID_1992_" transform="translate(500.182 174.244)">
            <circle id="XMLID_1993_" class="cls-1" cx="10.693" cy="10.693" r="10.693"/>
            <circle id="XMLID_1994_" class="cls-1" cx="10.693" cy="10.693" r="10.693" transform="translate(0 61.78)"/>
            <circle id="XMLID_1995_" class="cls-1" cx="10.693" cy="10.693" r="10.693" transform="translate(0 123.56)"/>
            <circle id="XMLID_1996_" class="cls-1" cx="10.693" cy="10.693" r="10.693" transform="translate(0 185.341)"/>
          </g>
          <g id="XMLID_2035_" transform="translate(508.903 165.547)">
            <circle id="XMLID_2039_" class="cls-14" cx="10.693" cy="10.693" r="10.693"/>
            <circle id="XMLID_2038_" class="cls-14" cx="10.693" cy="10.693" r="10.693" transform="translate(0 61.78)"/>
            <circle id="XMLID_2037_" class="cls-14" cx="10.693" cy="10.693" r="10.693" transform="translate(0 123.56)"/>
            <circle id="XMLID_2036_" class="cls-14" cx="10.693" cy="10.693" r="10.693" transform="translate(0 185.341)"/>
          </g>
        </g>
        <g id="XMLID_2030_" class="cls-6" transform="translate(125.241 566.563)">
          <circle id="XMLID_2034_" class="cls-27" cx="10.693" cy="10.693" r="10.693" transform="translate(1176.2 771.849)"/>
          <circle id="XMLID_2033_" class="cls-27" cx="10.693" cy="10.693" r="10.693" transform="translate(1114.42 771.849)"/>
          <circle id="XMLID_2032_" class="cls-1" cx="10.693" cy="10.693" r="10.693" transform="translate(1052.64 771.849)"/>
          <circle id="XMLID_2031_" class="cls-27" cx="10.693" cy="10.693" r="10.693" transform="translate(990.859 771.849)"/>
        </g>
        <g id="XMLID_1998_" class="cls-6" transform="translate(125.241 566.563)">
          <circle id="XMLID_2002_" class="cls-1" cx="10.693" cy="10.693" r="10.693" transform="translate(1113.232 1013.433)"/>
          <circle id="XMLID_2001_" class="cls-1" cx="10.693" cy="10.693" r="10.693" transform="translate(1113.232 1075.213)"/>
          <circle id="XMLID_2000_" class="cls-1" cx="10.693" cy="10.693" r="10.693" transform="translate(1113.232 1136.993)"/>
          <circle id="XMLID_1999_" class="cls-1" cx="10.693" cy="10.693" r="10.693" transform="translate(1113.232 1198.774)"/>
        </g>
        <g id="XMLID_2693_" class="cls-6" transform="translate(125.241 566.563)">
          <circle id="XMLID_2697_" class="cls-1" cx="10.693" cy="10.693" r="10.693" transform="translate(1698.956 220.793)"/>
          <circle id="XMLID_2696_" class="cls-1" cx="10.693" cy="10.693" r="10.693" transform="translate(1698.956 282.573)"/>
          <circle id="XMLID_2695_" class="cls-1" cx="10.693" cy="10.693" r="10.693" transform="translate(1698.956 344.353)"/>
          <circle id="XMLID_2694_" class="cls-1" cx="10.693" cy="10.693" r="10.693" transform="translate(1698.956 406.134)"/>
        </g>
        <g id="XMLID_2045_" class="cls-6" transform="translate(125.241 566.563)">
          <path id="XMLID_2049_" class="cls-28" d="M150.61,169.986l.57.57h0a62.973,62.973,0,0,0,89.059,0h0a62.973,62.973,0,0,0,0-89.059h0l.024.024h0a62.973,62.973,0,0,1,0-89.059h0a62.973,62.973,0,0,1,89.059,0h0l.57.57" transform="translate(207.264 -35.756)"/>
          <circle id="XMLID_2048_" class="cls-14" cx="34.264" cy="34.264" r="34.264" transform="translate(449.167 -17.95) rotate(-20.942)"/>
          <circle id="XMLID_2047_" class="cls-28" cx="18.225" cy="18.225" r="18.225" transform="translate(469.879 -8.703) rotate(-20.942)"/>
          <circle id="XMLID_2046_" class="cls-14" cx="51.682" cy="51.682" r="51.682" transform="translate(441.752 -49.899)"/>
        </g>
        <g id="XMLID_967_" class="cls-6" transform="translate(125.241 566.563)">
          <g id="Group_18" data-name="Group 18" transform="translate(619.394 488.705)">
            <line id="Line_25" data-name="Line 25" class="cls-29" transform="translate(146.514)"/>
            <line id="Line_26" data-name="Line 26" class="cls-30" x1="73.281" y2="73.281" transform="translate(24.403 48.83)"/>
            <line id="Line_27" data-name="Line 27" class="cls-29" transform="translate(0 146.514)"/>
          </g>
        </g>
        <g id="XMLID_2585_" class="cls-6" transform="translate(125.241 566.563)">
          <g id="Group_19" data-name="Group 19" transform="translate(1232.444 -85.946)">
            <line id="Line_28" data-name="Line 28" class="cls-31" transform="translate(146.514)"/>
            <line id="Line_29" data-name="Line 29" class="cls-32" x1="73.281" y2="73.257" transform="translate(24.403 48.854)"/>
            <line id="Line_30" data-name="Line 30" class="cls-31" transform="translate(0 146.538)"/>
          </g>
        </g>
        <g id="XMLID_2680_" class="cls-6" transform="translate(125.241 566.563)">
          <g id="Group_20" data-name="Group 20" transform="translate(-26.138 892.653)">
            <line id="Line_31" data-name="Line 31" class="cls-31" transform="translate(146.538)"/>
            <line id="Line_32" data-name="Line 32" class="cls-32" x1="73.257" y2="73.281" transform="translate(24.427 48.83)"/>
            <line id="Line_33" data-name="Line 33" class="cls-31" transform="translate(0 146.514)"/>
          </g>
        </g>
        <g id="Group_21" data-name="Group 21" class="cls-6" transform="translate(125.241 566.563)">
          <path id="XMLID_1835_" class="cls-1" d="M180.14,403.836,253.088,281.63l69.336,124.25-30.13-.428-39.207-70.239-41.226,69.1Z" transform="translate(247.902 387.568)"/>
        </g>
        <g id="Group_22" data-name="Group 22" class="cls-6" transform="translate(125.241 566.563)">
          <path id="XMLID_2702_" class="cls-1" d="M511.84,320.93l33.385,19.936L511.27,359.8l.119-8.222,19.2-10.716L511.7,329.6Z" transform="translate(703.59 441.652)"/>
        </g>
        <g id="Group_23" data-name="Group 23" class="cls-6" transform="translate(125.241 566.563)">
          <path id="XMLID_2703_" class="cls-1" d="M343.151,291.288l-28.466,47.69-27.065-48.5,11.762.166,15.3,27.421L330.771,291.1Z" transform="translate(395.812 399.747)"/>
        </g>
        <g id="XMLID_2660_" class="cls-33" transform="translate(125.241 566.563)">
          <path id="XMLID_2659_" class="cls-34" d="M625.507,320.183h0A8.5,8.5,0,0,1,617,311.677h0a8.5,8.5,0,0,1,8.507-8.507h0a8.5,8.5,0,0,1,8.507,8.507h0A8.483,8.483,0,0,1,625.507,320.183Z" transform="translate(849.092 417.211)"/>
          <path id="XMLID_2661_" class="cls-35" d="M602.427,320.183h0a8.5,8.5,0,0,1-8.507-8.507h0a8.5,8.5,0,0,1,8.507-8.507h0a8.5,8.5,0,0,1,8.507,8.507h0A8.5,8.5,0,0,1,602.427,320.183Z" transform="translate(817.33 417.211)"/>
          <path id="XMLID_2662_" class="cls-34" d="M579.347,320.183h0a8.5,8.5,0,0,1-8.507-8.507h0a8.5,8.5,0,0,1,8.507-8.507h0a8.5,8.5,0,0,1,8.507,8.507h0A8.5,8.5,0,0,1,579.347,320.183Z" transform="translate(785.568 417.211)"/>
        </g>
        <g id="XMLID_2705_" class="cls-6" transform="translate(125.241 566.563)">
          <path id="XMLID_2709_" class="cls-1" d="M243.1,215.1h0a8.5,8.5,0,0,1-8.507-8.507h0a8.5,8.5,0,0,1,8.507-8.507h0A8.5,8.5,0,0,1,251.6,206.6h0A8.5,8.5,0,0,1,243.1,215.1Z" transform="translate(322.834 272.604)"/>
          <path id="XMLID_2708_" class="cls-24" d="M224.369,227h0a16.033,16.033,0,0,1-16.039-16.039h0a16.033,16.033,0,0,1,16.039-16.039h0a16.033,16.033,0,0,1,16.039,16.039h0A16.048,16.048,0,0,1,224.369,227Z" transform="translate(286.696 268.241)"/>
          <path id="XMLID_2707_" class="cls-1" d="M196.927,215.1h0a8.5,8.5,0,0,1-8.507-8.507h0a8.5,8.5,0,0,1,8.507-8.507h0a8.5,8.5,0,0,1,8.507,8.507h0A8.5,8.5,0,0,1,196.927,215.1Z" transform="translate(259.296 272.604)"/>
        </g>
        <g id="XMLID_243_" class="cls-6" transform="translate(125.241 566.563)">
          <path id="XMLID_246_" class="cls-1" d="M475.507,30.963h0A8.5,8.5,0,0,1,467,22.457h0a8.5,8.5,0,0,1,8.507-8.507h0a8.5,8.5,0,0,1,8.507,8.507h0A8.483,8.483,0,0,1,475.507,30.963Z" transform="translate(642.667 19.197)"/>
          <path id="XMLID_245_" class="cls-24" d="M456.789,42.858h0A16.033,16.033,0,0,1,440.75,26.819h0A16.033,16.033,0,0,1,456.789,10.78h0a16.033,16.033,0,0,1,16.039,16.039h0A16.033,16.033,0,0,1,456.789,42.858Z" transform="translate(606.543 14.835)"/>
          <path id="XMLID_244_" class="cls-1" d="M429.347,30.963h0a8.5,8.5,0,0,1-8.507-8.507h0a8.5,8.5,0,0,1,8.507-8.507h0a8.5,8.5,0,0,1,8.507,8.507h0A8.5,8.5,0,0,1,429.347,30.963Z" transform="translate(579.144 19.197)"/>
        </g>
        <g id="XMLID_2710_" class="cls-6" transform="translate(125.241 566.563)">
          <path id="XMLID_2713_" class="cls-1" d="M370.927,470.933h0a8.5,8.5,0,0,1-8.507-8.507h0a8.5,8.5,0,0,1,8.507-8.507h0a8.5,8.5,0,0,1,8.507,8.507h0A8.5,8.5,0,0,1,370.927,470.933Z" transform="translate(498.749 624.667)"/>
          <path id="XMLID_2712_" class="cls-1" d="M347.847,470.933h0a8.5,8.5,0,0,1-8.507-8.507h0a8.5,8.5,0,0,1,8.507-8.507h0a8.5,8.5,0,0,1,8.507,8.507h0A8.5,8.5,0,0,1,347.847,470.933Z" transform="translate(466.987 624.667)"/>
          <path id="XMLID_2711_" class="cls-1" d="M324.757,470.933h0a8.5,8.5,0,0,1-8.507-8.507h0a8.5,8.5,0,0,1,8.507-8.507h0a8.5,8.5,0,0,1,8.507,8.507h0A8.483,8.483,0,0,1,324.757,470.933Z" transform="translate(435.211 624.667)"/>
        </g>
      </g>
    </g>
    <g id="XMLID_1997_" class="cls-36" transform="translate(241.758 718.253)">
      <path id="XMLID_1402_" class="cls-37" d="M400.23,437.55l.24-.24h0a26.5,26.5,0,0,0,0-37.48h0a26.5,26.5,0,0,0-37.48,0h0l.01-.01h0a26.5,26.5,0,0,1-37.48,0h0a26.5,26.5,0,0,1,0-37.48h0l.24-.24"/>
      <circle id="XMLID_1399_" class="cls-17" cx="14.42" cy="14.42" r="14.42" transform="translate(330.08 366.08)"/>
      <circle id="XMLID_1990_" class="cls-28" cx="7.67" cy="7.67" r="7.67" transform="translate(336.83 372.83)"/>
      <circle id="XMLID_1991_" class="cls-14" cx="21.75" cy="21.75" r="21.75" transform="translate(322.75 358.75)"/>
    </g>
    <g id="Group_30" data-name="Group 30" transform="translate(535.758 515.253)">
      <g id="XMLID_2024_">
        <g id="Group_26" data-name="Group 26">
          <line id="Line_34" data-name="Line 34" class="cls-15" y1="4.24" x2="4.24" transform="translate(-69.5 343.01)"/>
          <line id="Line_35" data-name="Line 35" class="cls-16" y1="33.52" x2="33.52" transform="translate(-55.68 299.91)"/>
          <line id="Line_36" data-name="Line 36" class="cls-15" y1="4.24" x2="4.24" transform="translate(-17.37 290.88)"/>
        </g>
      </g>
      <line id="XMLID_2023_" class="cls-14" y1="56.37" x2="56.38" transform="translate(-38.75 290.88)"/>
      <g id="XMLID_2017_">
        <g id="Group_27" data-name="Group 27">
          <line id="Line_37" data-name="Line 37" class="cls-15" y1="4.24" x2="4.24" transform="translate(-8 343.01)"/>
          <line id="Line_38" data-name="Line 38" class="cls-16" y1="33.52" x2="33.52" transform="translate(5.82 299.91)"/>
          <line id="Line_39" data-name="Line 39" class="cls-15" y1="4.24" x2="4.25" transform="translate(44.13 290.88)"/>
        </g>
      </g>
      <g id="XMLID_2011_">
        <g id="Group_28" data-name="Group 28">
          <line id="Line_40" data-name="Line 40" class="cls-15" y1="4.24" x2="4.24" transform="translate(22.75 343.01)"/>
          <line id="Line_41" data-name="Line 41" class="cls-16" y1="33.52" x2="33.52" transform="translate(36.57 299.91)"/>
          <line id="Line_42" data-name="Line 42" class="cls-15" y1="4.24" x2="4.25" transform="translate(74.88 290.88)"/>
        </g>
      </g>
      <line id="XMLID_2010_" class="cls-14" y1="56.37" x2="56.38" transform="translate(53.5 290.88)"/>
      <g id="XMLID_2004_">
        <g id="Group_29" data-name="Group 29">
          <line id="Line_43" data-name="Line 43" class="cls-15" y1="4.24" x2="4.24" transform="translate(84.25 343.01)"/>
          <line id="Line_44" data-name="Line 44" class="cls-16" y1="33.52" x2="33.52" transform="translate(98.07 299.91)"/>
          <line id="Line_45" data-name="Line 45" class="cls-15" y1="4.24" x2="4.25" transform="translate(136.38 290.88)"/>
        </g>
      </g>
    </g>
    <g id="Group_25" data-name="Group 25" transform="translate(112.758 823.253)">
      <g id="XMLID_1360_">
        <path id="XMLID_1368_" class="cls-1" d="M74.42,429.82a.89.89,0,1,1-.89-.89A.892.892,0,0,1,74.42,429.82Z"/>
        <path id="XMLID_1367_" class="cls-1" d="M88.41,429.82a.89.89,0,1,1-.89-.89A.892.892,0,0,1,88.41,429.82Z"/>
        <circle id="XMLID_1363_" class="cls-1" cx="1.64" cy="1.64" r="1.64" transform="translate(141.87 428.18)"/>
        <path id="XMLID_1362_" class="cls-1" d="M158.4,429.82a.89.89,0,1,1-.89-.89A.892.892,0,0,1,158.4,429.82Z"/>
        <circle id="XMLID_1361_" class="cls-1" cx="1.6" cy="1.6" r="1.6" transform="translate(169.91 428.22)"/>
      </g>
      <g id="XMLID_1348_">
        <path id="XMLID_1359_" class="cls-1" d="M32.42,442.33a.89.89,0,1,1-.89-.89A.892.892,0,0,1,32.42,442.33Z"/>
        <path id="XMLID_1358_" class="cls-1" d="M47.13,442.33a1.6,1.6,0,1,1-1.6-1.6A1.6,1.6,0,0,1,47.13,442.33Z"/>
        <circle id="XMLID_1357_" class="cls-1" cx="0.89" cy="0.89" r="0.89" transform="translate(58.63 441.44)"/>
        <circle id="XMLID_1356_" class="cls-1" cx="0.89" cy="0.89" r="0.89" transform="translate(72.63 441.44)"/>
        <path id="XMLID_1355_" class="cls-1" d="M89.35,442.33a1.83,1.83,0,1,1-1.83-1.83A1.831,1.831,0,0,1,89.35,442.33Z"/>
        <circle id="XMLID_1354_" class="cls-1" cx="0.89" cy="0.89" r="0.89" transform="translate(100.63 441.44)"/>
        <circle id="XMLID_1353_" class="cls-1" cx="0.89" cy="0.89" r="0.89" transform="translate(114.63 441.44)"/>
        <circle id="XMLID_1352_" class="cls-1" cx="0.89" cy="0.89" r="0.89" transform="translate(128.62 441.44)"/>
      </g>
      <g id="XMLID_1336_">
        <circle id="XMLID_1346_" class="cls-1" cx="0.89" cy="0.89" r="0.89" transform="translate(44.64 453.95)"/>
        <circle id="XMLID_1345_" class="cls-1" cx="0.89" cy="0.89" r="0.89" transform="translate(58.63 453.95)"/>
        <circle id="XMLID_1344_" class="cls-1" cx="0.89" cy="0.89" r="0.89" transform="translate(72.63 453.95)"/>
        <path id="XMLID_1343_" class="cls-1" d="M88.41,454.84a.89.89,0,1,1-.89-.89A.892.892,0,0,1,88.41,454.84Z"/>
        <circle id="XMLID_1342_" class="cls-1" cx="0.89" cy="0.89" r="0.89" transform="translate(100.63 453.95)"/>
        <circle id="XMLID_1341_" class="cls-1" cx="0.89" cy="0.89" r="0.89" transform="translate(114.63 453.95)"/>
        <circle id="XMLID_1340_" class="cls-1" cx="1.37" cy="1.37" r="1.37" transform="translate(128.14 453.47)"/>
        <circle id="XMLID_1339_" class="cls-1" cx="0.89" cy="0.89" r="0.89" transform="translate(142.62 453.95)"/>
        <path id="XMLID_1338_" class="cls-1" d="M158.4,454.84a.89.89,0,1,1-.89-.89A.892.892,0,0,1,158.4,454.84Z"/>
        <path id="XMLID_1337_" class="cls-1" d="M172.4,454.84a.89.89,0,1,1-.89-.89A.892.892,0,0,1,172.4,454.84Z"/>
      </g>
      <g id="XMLID_1324_">
        <path id="XMLID_1332_" class="cls-1" d="M75.17,467.35a1.65,1.65,0,1,1-1.65-1.65A1.652,1.652,0,0,1,75.17,467.35Z"/>
        <path id="XMLID_1331_" class="cls-1" d="M88.41,467.35a.89.89,0,1,1-.89-.89A.892.892,0,0,1,88.41,467.35Z"/>
        <circle id="XMLID_1330_" class="cls-1" cx="0.89" cy="0.89" r="0.89" transform="translate(100.63 466.46)"/>
        <circle id="XMLID_1329_" class="cls-1" cx="0.89" cy="0.89" r="0.89" transform="translate(114.63 466.46)"/>
        <circle id="XMLID_1328_" class="cls-1" cx="0.89" cy="0.89" r="0.89" transform="translate(128.62 466.46)"/>
        <path id="XMLID_1327_" class="cls-1" d="M148.5,467.35a4.99,4.99,0,1,1-4.99-4.99A4.985,4.985,0,0,1,148.5,467.35Z"/>
      </g>
      <g id="XMLID_1312_">
        <path id="XMLID_1323_" class="cls-1" d="M32.42,479.86a.89.89,0,1,1-.89-.89A.892.892,0,0,1,32.42,479.86Z"/>
        <circle id="XMLID_1322_" class="cls-1" cx="0.89" cy="0.89" r="0.89" transform="translate(44.64 478.97)"/>
        <circle id="XMLID_1321_" class="cls-1" cx="0.89" cy="0.89" r="0.89" transform="translate(58.63 478.97)"/>
        <circle id="XMLID_1320_" class="cls-1" cx="0.89" cy="0.89" r="0.89" transform="translate(72.63 478.97)"/>
        <path id="XMLID_1319_" class="cls-1" d="M88.41,479.86a.89.89,0,1,1-.89-.89A.892.892,0,0,1,88.41,479.86Z"/>
        <circle id="XMLID_1318_" class="cls-1" cx="0.89" cy="0.89" r="0.89" transform="translate(100.63 478.97)"/>
        <circle id="XMLID_1317_" class="cls-1" cx="1.98" cy="1.98" r="1.98" transform="translate(113.54 477.88)"/>
        <circle id="XMLID_1316_" class="cls-1" cx="0.89" cy="0.89" r="0.89" transform="translate(128.62 478.97)"/>
        <circle id="XMLID_1315_" class="cls-1" cx="0.89" cy="0.89" r="0.89" transform="translate(142.62 478.97)"/>
        <path id="XMLID_1314_" class="cls-1" d="M158.4,479.86a.89.89,0,1,1-.89-.89A.892.892,0,0,1,158.4,479.86Z"/>
        <path id="XMLID_1313_" class="cls-1" d="M172.4,479.86a.89.89,0,1,1-.89-.89A.892.892,0,0,1,172.4,479.86Z"/>
      </g>
      <g id="XMLID_1300_">
        <circle id="XMLID_1311_" class="cls-1" cx="1.39" cy="1.39" r="1.39" transform="translate(30.14 490.98)"/>
        <path id="XMLID_1310_" class="cls-1" d="M46.42,492.37a.89.89,0,1,1-.89-.89A.892.892,0,0,1,46.42,492.37Z"/>
        <path id="XMLID_1309_" class="cls-1" d="M60.42,492.37a.89.89,0,1,1-.89-.89A.892.892,0,0,1,60.42,492.37Z"/>
        <path id="XMLID_1308_" class="cls-1" d="M74.42,492.37a.89.89,0,1,1-.89-.89A.892.892,0,0,1,74.42,492.37Z"/>
        <path id="XMLID_1307_" class="cls-1" d="M89.35,492.37a1.83,1.83,0,1,1-1.83-1.83A1.831,1.831,0,0,1,89.35,492.37Z"/>
        <path id="XMLID_1306_" class="cls-1" d="M102.41,492.37a.89.89,0,1,1-.89-.89A.892.892,0,0,1,102.41,492.37Z"/>
        <path id="XMLID_1305_" class="cls-1" d="M116.41,492.37a.89.89,0,1,1-.89-.89A.892.892,0,0,1,116.41,492.37Z"/>
        <path id="XMLID_1304_" class="cls-1" d="M130.41,492.37a.89.89,0,1,1-.89-.89A.892.892,0,0,1,130.41,492.37Z"/>
      </g>
      <g id="XMLID_1288_">
        <circle id="XMLID_1296_" class="cls-1" cx="0.89" cy="0.89" r="0.89" transform="translate(72.63 503.99)"/>
        <path id="XMLID_1295_" class="cls-1" d="M88.41,504.88a.89.89,0,1,1-.89-.89A.879.879,0,0,1,88.41,504.88Z"/>
        <path id="XMLID_1294_" class="cls-1" d="M103.42,504.88a1.9,1.9,0,1,1-1.9-1.9A1.9,1.9,0,0,1,103.42,504.88Z"/>
        <circle id="XMLID_1293_" class="cls-1" cx="0.89" cy="0.89" r="0.89" transform="translate(114.63 503.99)"/>
        <circle id="XMLID_1292_" class="cls-1" cx="0.89" cy="0.89" r="0.89" transform="translate(128.62 503.99)"/>
        <path id="XMLID_1291_" class="cls-1" d="M145.35,504.88a1.84,1.84,0,1,1-1.84-1.84A1.842,1.842,0,0,1,145.35,504.88Z"/>
        <path id="XMLID_1290_" class="cls-1" d="M158.4,504.88a.89.89,0,1,1-.89-.89A.879.879,0,0,1,158.4,504.88Z"/>
        <path id="XMLID_1289_" class="cls-1" d="M172.4,504.88a.89.89,0,1,1-.89-.89A.879.879,0,0,1,172.4,504.88Z"/>
      </g>
      <g id="XMLID_1276_">
        <path id="XMLID_1287_" class="cls-1" d="M33.08,517.39a1.56,1.56,0,1,1-1.56-1.56A1.562,1.562,0,0,1,33.08,517.39Z"/>
        <circle id="XMLID_1286_" class="cls-1" cx="0.89" cy="0.89" r="0.89" transform="translate(44.64 516.5)"/>
        <circle id="XMLID_1285_" class="cls-1" cx="0.89" cy="0.89" r="0.89" transform="translate(58.63 516.5)"/>
        <path id="XMLID_1284_" class="cls-1" d="M75.25,517.39a1.73,1.73,0,1,1-1.73-1.73A1.731,1.731,0,0,1,75.25,517.39Z"/>
        <path id="XMLID_1283_" class="cls-1" d="M88.41,517.39a.89.89,0,1,1-.89-.89A.879.879,0,0,1,88.41,517.39Z"/>
        <circle id="XMLID_1282_" class="cls-1" cx="0.89" cy="0.89" r="0.89" transform="translate(100.63 516.5)"/>
        <circle id="XMLID_1281_" class="cls-1" cx="0.89" cy="0.89" r="0.89" transform="translate(114.63 516.5)"/>
        <circle id="XMLID_1280_" class="cls-1" cx="0.89" cy="0.89" r="0.89" transform="translate(128.62 516.5)"/>
      </g>
      <g id="XMLID_1264_">
        <path id="XMLID_1275_" class="cls-1" d="M32.42,529.89a.89.89,0,1,1-.89-.89A.892.892,0,0,1,32.42,529.89Z"/>
        <path id="XMLID_1274_" class="cls-1" d="M46.96,529.89a1.43,1.43,0,1,1-1.43-1.43A1.43,1.43,0,0,1,46.96,529.89Z"/>
        <circle id="XMLID_1273_" class="cls-1" cx="0.89" cy="0.89" r="0.89" transform="translate(58.63 529)"/>
        <circle id="XMLID_1272_" class="cls-1" cx="0.89" cy="0.89" r="0.89" transform="translate(72.63 529)"/>
        <path id="XMLID_1271_" class="cls-1" d="M88.41,529.89a.89.89,0,1,1-.89-.89A.892.892,0,0,1,88.41,529.89Z"/>
        <circle id="XMLID_1270_" class="cls-1" cx="0.89" cy="0.89" r="0.89" transform="translate(100.63 529)"/>
        <circle id="XMLID_1269_" class="cls-1" cx="2.23" cy="2.23" r="2.23" transform="translate(113.29 527.66)"/>
        <circle id="XMLID_1268_" class="cls-1" cx="0.89" cy="0.89" r="0.89" transform="translate(128.62 529)"/>
        <circle id="XMLID_1267_" class="cls-1" cx="0.89" cy="0.89" r="0.89" transform="translate(142.62 529)"/>
        <path id="XMLID_1266_" class="cls-1" d="M159.17,529.89a1.66,1.66,0,1,1-1.66-1.66A1.675,1.675,0,0,1,159.17,529.89Z"/>
        <path id="XMLID_1265_" class="cls-1" d="M172.4,529.89a.89.89,0,1,1-.89-.89A.892.892,0,0,1,172.4,529.89Z"/>
      </g>
      <g id="XMLID_1252_">
        <circle id="XMLID_1260_" class="cls-1" cx="0.89" cy="0.89" r="0.89" transform="translate(72.63 541.51)"/>
        <path id="XMLID_1259_" class="cls-1" d="M88.41,542.4a.89.89,0,1,1-.89-.89A.892.892,0,0,1,88.41,542.4Z"/>
        <circle id="XMLID_1258_" class="cls-1" cx="0.89" cy="0.89" r="0.89" transform="translate(100.63 541.51)"/>
        <circle id="XMLID_1257_" class="cls-1" cx="0.89" cy="0.89" r="0.89" transform="translate(114.63 541.51)"/>
        <path id="XMLID_1256_" class="cls-1" d="M130.79,542.4a1.28,1.28,0,1,1-1.28-1.28A1.276,1.276,0,0,1,130.79,542.4Z"/>
        <circle id="XMLID_1255_" class="cls-1" cx="0.89" cy="0.89" r="0.89" transform="translate(142.62 541.51)"/>
      </g>
      <g id="XMLID_1240_">
        <path id="XMLID_1251_" class="cls-1" d="M32.42,554.91a.89.89,0,1,1-.89-.89A.892.892,0,0,1,32.42,554.91Z"/>
        <path id="XMLID_1250_" class="cls-1" d="M46.42,554.91a.89.89,0,1,1-.89-.89A.892.892,0,0,1,46.42,554.91Z"/>
        <path id="XMLID_1249_" class="cls-1" d="M61.21,554.91a1.68,1.68,0,1,1-1.68-1.68A1.677,1.677,0,0,1,61.21,554.91Z"/>
        <path id="XMLID_1248_" class="cls-1" d="M74.42,554.91a.89.89,0,1,1-.89-.89A.892.892,0,0,1,74.42,554.91Z"/>
        <path id="XMLID_1247_" class="cls-1" d="M88.41,554.91a.89.89,0,1,1-.89-.89A.892.892,0,0,1,88.41,554.91Z"/>
        <path id="XMLID_1246_" class="cls-1" d="M102.41,554.91a.89.89,0,1,1-.89-.89A.892.892,0,0,1,102.41,554.91Z"/>
        <path id="XMLID_1245_" class="cls-1" d="M116.41,554.91a.89.89,0,1,1-.89-.89A.892.892,0,0,1,116.41,554.91Z"/>
        <path id="XMLID_1244_" class="cls-1" d="M131.04,554.91a1.53,1.53,0,1,1-1.53-1.53A1.53,1.53,0,0,1,131.04,554.91Z"/>
        <path id="XMLID_1243_" class="cls-1" d="M144.4,554.91a.89.89,0,1,1-.89-.89A.892.892,0,0,1,144.4,554.91Z"/>
        <path id="XMLID_1242_" class="cls-1" d="M158.4,554.91a.89.89,0,1,1-.89-.89A.892.892,0,0,1,158.4,554.91Z"/>
        <path id="XMLID_1241_" class="cls-1" d="M172.4,554.91a.89.89,0,1,1-.89-.89A.892.892,0,0,1,172.4,554.91Z"/>
      </g>
      <g id="XMLID_816_">
        <path id="XMLID_1236_" class="cls-1" d="M75.04,567.42a1.52,1.52,0,1,1-1.52-1.52A1.519,1.519,0,0,1,75.04,567.42Z"/>
        <path id="XMLID_1235_" class="cls-1" d="M88.41,567.42a.89.89,0,1,1-.89-.89A.892.892,0,0,1,88.41,567.42Z"/>
        <circle id="XMLID_1147_" class="cls-1" cx="0.89" cy="0.89" r="0.89" transform="translate(100.63 566.53)"/>
        <path id="XMLID_899_" class="cls-1" d="M159.1,567.42a1.6,1.6,0,1,1-1.6-1.6A1.6,1.6,0,0,1,159.1,567.42Z"/>
        <path id="XMLID_826_" class="cls-1" d="M172.4,567.42a.89.89,0,1,1-.89-.89A.892.892,0,0,1,172.4,567.42Z"/>
      </g>
    </g>
  </g>
</svg>
